<svg xmlns="http://www.w3.org/2000/svg" xmlns:xlink="http://www.w3.org/1999/xlink" font-size="10px" font-family="sans-serif" fill="none" stroke="none" stroke-width="1.5" width="1900.0" height="1000.0">
     <rect width="1900" height="1000" fill="rgb(255,255,255)"/>
     <g transform="translate(0.0,0.0)">
          <line shape-rendering="crispEdges" x1="0" y1="500" x2="1900" y2="500" stroke="rgb(0,0,0)" stroke-width="1"/>
     </g>
     <g transform="translate(0.0,0.0)">
          <line shape-rendering="crispEdges" x1="950" y1="0" x2="950" y2="1000" stroke="rgb(0,0,0)" stroke-width="1"/>
     </g>
     <g transform="translate(0.0,0.0)">
          <line shape-rendering="crispEdges" x1="945.0" y1="650.0" x2="955.0" y2="650.0" stroke="rgb(0,0,0)" stroke-width="1"/>
          <line shape-rendering="crispEdges" x1="945.0" y1="620.0" x2="955.0" y2="620.0" stroke="rgb(0,0,0)" stroke-width="1"/>
          <line shape-rendering="crispEdges" x1="945.0" y1="590.0" x2="955.0" y2="590.0" stroke="rgb(0,0,0)" stroke-width="1"/>
          <line shape-rendering="crispEdges" x1="945.0" y1="560.0" x2="955.0" y2="560.0" stroke="rgb(0,0,0)" stroke-width="1"/>
          <line shape-rendering="crispEdges" x1="945.0" y1="530.0" x2="955.0" y2="530.0" stroke="rgb(0,0,0)" stroke-width="1"/>
          <line shape-rendering="crispEdges" x1="945.0" y1="500.0" x2="955.0" y2="500.0" stroke="rgb(0,0,0)" stroke-width="1"/>
          <line shape-rendering="crispEdges" x1="945.0" y1="470.0" x2="955.0" y2="470.0" stroke="rgb(0,0,0)" stroke-width="1"/>
          <line shape-rendering="crispEdges" x1="945.0" y1="440.0" x2="955.0" y2="440.0" stroke="rgb(0,0,0)" stroke-width="1"/>
          <line shape-rendering="crispEdges" x1="945.0" y1="410.0" x2="955.0" y2="410.0" stroke="rgb(0,0,0)" stroke-width="1"/>
          <line shape-rendering="crispEdges" x1="945.0" y1="380.0" x2="955.0" y2="380.0" stroke="rgb(0,0,0)" stroke-width="1"/>
          <line shape-rendering="crispEdges" x1="945.0" y1="350.0" x2="955.0" y2="350.0" stroke="rgb(0,0,0)" stroke-width="1"/>
     </g>
     <g transform="translate(0.0,0.0)">
          <text pointer-events="none" x="3" y="-3" transform="translate(950,650.0)" fill="rgb(0,0,0)">-5</text>
          <text pointer-events="none" x="3" y="-3" transform="translate(950,620.0)" fill="rgb(0,0,0)">-4</text>
          <text pointer-events="none" x="3" y="-3" transform="translate(950,590.0)" fill="rgb(0,0,0)">-3</text>
          <text pointer-events="none" x="3" y="-3" transform="translate(950,560.0)" fill="rgb(0,0,0)">-2</text>
          <text pointer-events="none" x="3" y="-3" transform="translate(950,530.0)" fill="rgb(0,0,0)">-1</text>
          <text pointer-events="none" x="3" y="-3" transform="translate(950,500.0)" fill="rgb(0,0,0)">0</text>
          <text pointer-events="none" x="3" y="-3" transform="translate(950,470.0)" fill="rgb(0,0,0)">1</text>
          <text pointer-events="none" x="3" y="-3" transform="translate(950,440.0)" fill="rgb(0,0,0)">2</text>
          <text pointer-events="none" x="3" y="-3" transform="translate(950,410.0)" fill="rgb(0,0,0)">3</text>
          <text pointer-events="none" x="3" y="-3" transform="translate(950,380.0)" fill="rgb(0,0,0)">4</text>
          <text pointer-events="none" x="3" y="-3" transform="translate(950,350.0)" fill="rgb(0,0,0)">5</text>
     </g>
     <g transform="translate(0.0,0.0)">
          <line shape-rendering="crispEdges" x1="-4050.0" y1="495.0" x2="-4050.0" y2="505.0" stroke="rgb(0,0,0)" stroke-width="1"/>
          <line shape-rendering="crispEdges" x1="-3950.0" y1="495.0" x2="-3950.0" y2="505.0" stroke="rgb(0,0,0)" stroke-width="1"/>
          <line shape-rendering="crispEdges" x1="-3850.0" y1="495.0" x2="-3850.0" y2="505.0" stroke="rgb(0,0,0)" stroke-width="1"/>
          <line shape-rendering="crispEdges" x1="-3750.0" y1="495.0" x2="-3750.0" y2="505.0" stroke="rgb(0,0,0)" stroke-width="1"/>
          <line shape-rendering="crispEdges" x1="-3650.0" y1="495.0" x2="-3650.0" y2="505.0" stroke="rgb(0,0,0)" stroke-width="1"/>
          <line shape-rendering="crispEdges" x1="-3550.0" y1="495.0" x2="-3550.0" y2="505.0" stroke="rgb(0,0,0)" stroke-width="1"/>
          <line shape-rendering="crispEdges" x1="-3450.0" y1="495.0" x2="-3450.0" y2="505.0" stroke="rgb(0,0,0)" stroke-width="1"/>
          <line shape-rendering="crispEdges" x1="-3350.0" y1="495.0" x2="-3350.0" y2="505.0" stroke="rgb(0,0,0)" stroke-width="1"/>
          <line shape-rendering="crispEdges" x1="-3250.0" y1="495.0" x2="-3250.0" y2="505.0" stroke="rgb(0,0,0)" stroke-width="1"/>
          <line shape-rendering="crispEdges" x1="-3150.0" y1="495.0" x2="-3150.0" y2="505.0" stroke="rgb(0,0,0)" stroke-width="1"/>
          <line shape-rendering="crispEdges" x1="-3050.0" y1="495.0" x2="-3050.0" y2="505.0" stroke="rgb(0,0,0)" stroke-width="1"/>
          <line shape-rendering="crispEdges" x1="-2950.0" y1="495.0" x2="-2950.0" y2="505.0" stroke="rgb(0,0,0)" stroke-width="1"/>
          <line shape-rendering="crispEdges" x1="-2850.0" y1="495.0" x2="-2850.0" y2="505.0" stroke="rgb(0,0,0)" stroke-width="1"/>
          <line shape-rendering="crispEdges" x1="-2750.0" y1="495.0" x2="-2750.0" y2="505.0" stroke="rgb(0,0,0)" stroke-width="1"/>
          <line shape-rendering="crispEdges" x1="-2650.0" y1="495.0" x2="-2650.0" y2="505.0" stroke="rgb(0,0,0)" stroke-width="1"/>
          <line shape-rendering="crispEdges" x1="-2550.0" y1="495.0" x2="-2550.0" y2="505.0" stroke="rgb(0,0,0)" stroke-width="1"/>
          <line shape-rendering="crispEdges" x1="-2450.0" y1="495.0" x2="-2450.0" y2="505.0" stroke="rgb(0,0,0)" stroke-width="1"/>
          <line shape-rendering="crispEdges" x1="-2350.0" y1="495.0" x2="-2350.0" y2="505.0" stroke="rgb(0,0,0)" stroke-width="1"/>
          <line shape-rendering="crispEdges" x1="-2250.0" y1="495.0" x2="-2250.0" y2="505.0" stroke="rgb(0,0,0)" stroke-width="1"/>
          <line shape-rendering="crispEdges" x1="-2150.0" y1="495.0" x2="-2150.0" y2="505.0" stroke="rgb(0,0,0)" stroke-width="1"/>
          <line shape-rendering="crispEdges" x1="-2050.0" y1="495.0" x2="-2050.0" y2="505.0" stroke="rgb(0,0,0)" stroke-width="1"/>
          <line shape-rendering="crispEdges" x1="-1950.0" y1="495.0" x2="-1950.0" y2="505.0" stroke="rgb(0,0,0)" stroke-width="1"/>
          <line shape-rendering="crispEdges" x1="-1850.0" y1="495.0" x2="-1850.0" y2="505.0" stroke="rgb(0,0,0)" stroke-width="1"/>
          <line shape-rendering="crispEdges" x1="-1750.0" y1="495.0" x2="-1750.0" y2="505.0" stroke="rgb(0,0,0)" stroke-width="1"/>
          <line shape-rendering="crispEdges" x1="-1650.0" y1="495.0" x2="-1650.0" y2="505.0" stroke="rgb(0,0,0)" stroke-width="1"/>
          <line shape-rendering="crispEdges" x1="-1550.0" y1="495.0" x2="-1550.0" y2="505.0" stroke="rgb(0,0,0)" stroke-width="1"/>
          <line shape-rendering="crispEdges" x1="-1450.0" y1="495.0" x2="-1450.0" y2="505.0" stroke="rgb(0,0,0)" stroke-width="1"/>
          <line shape-rendering="crispEdges" x1="-1350.0" y1="495.0" x2="-1350.0" y2="505.0" stroke="rgb(0,0,0)" stroke-width="1"/>
          <line shape-rendering="crispEdges" x1="-1250.0" y1="495.0" x2="-1250.0" y2="505.0" stroke="rgb(0,0,0)" stroke-width="1"/>
          <line shape-rendering="crispEdges" x1="-1150.0" y1="495.0" x2="-1150.0" y2="505.0" stroke="rgb(0,0,0)" stroke-width="1"/>
          <line shape-rendering="crispEdges" x1="-1050.0" y1="495.0" x2="-1050.0" y2="505.0" stroke="rgb(0,0,0)" stroke-width="1"/>
          <line shape-rendering="crispEdges" x1="-950.0" y1="495.0" x2="-950.0" y2="505.0" stroke="rgb(0,0,0)" stroke-width="1"/>
          <line shape-rendering="crispEdges" x1="-850.0" y1="495.0" x2="-850.0" y2="505.0" stroke="rgb(0,0,0)" stroke-width="1"/>
          <line shape-rendering="crispEdges" x1="-750.0" y1="495.0" x2="-750.0" y2="505.0" stroke="rgb(0,0,0)" stroke-width="1"/>
          <line shape-rendering="crispEdges" x1="-650.0" y1="495.0" x2="-650.0" y2="505.0" stroke="rgb(0,0,0)" stroke-width="1"/>
          <line shape-rendering="crispEdges" x1="-550.0" y1="495.0" x2="-550.0" y2="505.0" stroke="rgb(0,0,0)" stroke-width="1"/>
          <line shape-rendering="crispEdges" x1="-450.0" y1="495.0" x2="-450.0" y2="505.0" stroke="rgb(0,0,0)" stroke-width="1"/>
          <line shape-rendering="crispEdges" x1="-350.0" y1="495.0" x2="-350.0" y2="505.0" stroke="rgb(0,0,0)" stroke-width="1"/>
          <line shape-rendering="crispEdges" x1="-250.0" y1="495.0" x2="-250.0" y2="505.0" stroke="rgb(0,0,0)" stroke-width="1"/>
          <line shape-rendering="crispEdges" x1="-150.0" y1="495.0" x2="-150.0" y2="505.0" stroke="rgb(0,0,0)" stroke-width="1"/>
          <line shape-rendering="crispEdges" x1="-50.0" y1="495.0" x2="-50.0" y2="505.0" stroke="rgb(0,0,0)" stroke-width="1"/>
          <line shape-rendering="crispEdges" x1="50.0" y1="495.0" x2="50.0" y2="505.0" stroke="rgb(0,0,0)" stroke-width="1"/>
          <line shape-rendering="crispEdges" x1="150.0" y1="495.0" x2="150.0" y2="505.0" stroke="rgb(0,0,0)" stroke-width="1"/>
          <line shape-rendering="crispEdges" x1="250.0" y1="495.0" x2="250.0" y2="505.0" stroke="rgb(0,0,0)" stroke-width="1"/>
          <line shape-rendering="crispEdges" x1="350.0" y1="495.0" x2="350.0" y2="505.0" stroke="rgb(0,0,0)" stroke-width="1"/>
          <line shape-rendering="crispEdges" x1="450.0" y1="495.0" x2="450.0" y2="505.0" stroke="rgb(0,0,0)" stroke-width="1"/>
          <line shape-rendering="crispEdges" x1="550.0" y1="495.0" x2="550.0" y2="505.0" stroke="rgb(0,0,0)" stroke-width="1"/>
          <line shape-rendering="crispEdges" x1="650.0" y1="495.0" x2="650.0" y2="505.0" stroke="rgb(0,0,0)" stroke-width="1"/>
          <line shape-rendering="crispEdges" x1="750.0" y1="495.0" x2="750.0" y2="505.0" stroke="rgb(0,0,0)" stroke-width="1"/>
          <line shape-rendering="crispEdges" x1="850.0" y1="495.0" x2="850.0" y2="505.0" stroke="rgb(0,0,0)" stroke-width="1"/>
          <line shape-rendering="crispEdges" x1="950.0" y1="495.0" x2="950.0" y2="505.0" stroke="rgb(0,0,0)" stroke-width="1"/>
          <line shape-rendering="crispEdges" x1="1050.0" y1="495.0" x2="1050.0" y2="505.0" stroke="rgb(0,0,0)" stroke-width="1"/>
          <line shape-rendering="crispEdges" x1="1150.0" y1="495.0" x2="1150.0" y2="505.0" stroke="rgb(0,0,0)" stroke-width="1"/>
          <line shape-rendering="crispEdges" x1="1250.0" y1="495.0" x2="1250.0" y2="505.0" stroke="rgb(0,0,0)" stroke-width="1"/>
          <line shape-rendering="crispEdges" x1="1350.0" y1="495.0" x2="1350.0" y2="505.0" stroke="rgb(0,0,0)" stroke-width="1"/>
          <line shape-rendering="crispEdges" x1="1450.0" y1="495.0" x2="1450.0" y2="505.0" stroke="rgb(0,0,0)" stroke-width="1"/>
          <line shape-rendering="crispEdges" x1="1550.0" y1="495.0" x2="1550.0" y2="505.0" stroke="rgb(0,0,0)" stroke-width="1"/>
          <line shape-rendering="crispEdges" x1="1650.0" y1="495.0" x2="1650.0" y2="505.0" stroke="rgb(0,0,0)" stroke-width="1"/>
          <line shape-rendering="crispEdges" x1="1750.0" y1="495.0" x2="1750.0" y2="505.0" stroke="rgb(0,0,0)" stroke-width="1"/>
          <line shape-rendering="crispEdges" x1="1850.0" y1="495.0" x2="1850.0" y2="505.0" stroke="rgb(0,0,0)" stroke-width="1"/>
          <line shape-rendering="crispEdges" x1="1950.0" y1="495.0" x2="1950.0" y2="505.0" stroke="rgb(0,0,0)" stroke-width="1"/>
          <line shape-rendering="crispEdges" x1="2050.0" y1="495.0" x2="2050.0" y2="505.0" stroke="rgb(0,0,0)" stroke-width="1"/>
          <line shape-rendering="crispEdges" x1="2150.0" y1="495.0" x2="2150.0" y2="505.0" stroke="rgb(0,0,0)" stroke-width="1"/>
          <line shape-rendering="crispEdges" x1="2250.0" y1="495.0" x2="2250.0" y2="505.0" stroke="rgb(0,0,0)" stroke-width="1"/>
          <line shape-rendering="crispEdges" x1="2350.0" y1="495.0" x2="2350.0" y2="505.0" stroke="rgb(0,0,0)" stroke-width="1"/>
          <line shape-rendering="crispEdges" x1="2450.0" y1="495.0" x2="2450.0" y2="505.0" stroke="rgb(0,0,0)" stroke-width="1"/>
          <line shape-rendering="crispEdges" x1="2550.0" y1="495.0" x2="2550.0" y2="505.0" stroke="rgb(0,0,0)" stroke-width="1"/>
          <line shape-rendering="crispEdges" x1="2650.0" y1="495.0" x2="2650.0" y2="505.0" stroke="rgb(0,0,0)" stroke-width="1"/>
          <line shape-rendering="crispEdges" x1="2750.0" y1="495.0" x2="2750.0" y2="505.0" stroke="rgb(0,0,0)" stroke-width="1"/>
          <line shape-rendering="crispEdges" x1="2850.0" y1="495.0" x2="2850.0" y2="505.0" stroke="rgb(0,0,0)" stroke-width="1"/>
          <line shape-rendering="crispEdges" x1="2950.0" y1="495.0" x2="2950.0" y2="505.0" stroke="rgb(0,0,0)" stroke-width="1"/>
          <line shape-rendering="crispEdges" x1="3050.0" y1="495.0" x2="3050.0" y2="505.0" stroke="rgb(0,0,0)" stroke-width="1"/>
          <line shape-rendering="crispEdges" x1="3150.0" y1="495.0" x2="3150.0" y2="505.0" stroke="rgb(0,0,0)" stroke-width="1"/>
          <line shape-rendering="crispEdges" x1="3250.0" y1="495.0" x2="3250.0" y2="505.0" stroke="rgb(0,0,0)" stroke-width="1"/>
          <line shape-rendering="crispEdges" x1="3350.0" y1="495.0" x2="3350.0" y2="505.0" stroke="rgb(0,0,0)" stroke-width="1"/>
          <line shape-rendering="crispEdges" x1="3450.0" y1="495.0" x2="3450.0" y2="505.0" stroke="rgb(0,0,0)" stroke-width="1"/>
          <line shape-rendering="crispEdges" x1="3550.0" y1="495.0" x2="3550.0" y2="505.0" stroke="rgb(0,0,0)" stroke-width="1"/>
          <line shape-rendering="crispEdges" x1="3650.0" y1="495.0" x2="3650.0" y2="505.0" stroke="rgb(0,0,0)" stroke-width="1"/>
          <line shape-rendering="crispEdges" x1="3750.0" y1="495.0" x2="3750.0" y2="505.0" stroke="rgb(0,0,0)" stroke-width="1"/>
          <line shape-rendering="crispEdges" x1="3850.0" y1="495.0" x2="3850.0" y2="505.0" stroke="rgb(0,0,0)" stroke-width="1"/>
          <line shape-rendering="crispEdges" x1="3950.0" y1="495.0" x2="3950.0" y2="505.0" stroke="rgb(0,0,0)" stroke-width="1"/>
          <line shape-rendering="crispEdges" x1="4050.0" y1="495.0" x2="4050.0" y2="505.0" stroke="rgb(0,0,0)" stroke-width="1"/>
          <line shape-rendering="crispEdges" x1="4150.0" y1="495.0" x2="4150.0" y2="505.0" stroke="rgb(0,0,0)" stroke-width="1"/>
          <line shape-rendering="crispEdges" x1="4250.0" y1="495.0" x2="4250.0" y2="505.0" stroke="rgb(0,0,0)" stroke-width="1"/>
          <line shape-rendering="crispEdges" x1="4350.0" y1="495.0" x2="4350.0" y2="505.0" stroke="rgb(0,0,0)" stroke-width="1"/>
          <line shape-rendering="crispEdges" x1="4450.0" y1="495.0" x2="4450.0" y2="505.0" stroke="rgb(0,0,0)" stroke-width="1"/>
          <line shape-rendering="crispEdges" x1="4550.0" y1="495.0" x2="4550.0" y2="505.0" stroke="rgb(0,0,0)" stroke-width="1"/>
          <line shape-rendering="crispEdges" x1="4650.0" y1="495.0" x2="4650.0" y2="505.0" stroke="rgb(0,0,0)" stroke-width="1"/>
          <line shape-rendering="crispEdges" x1="4750.0" y1="495.0" x2="4750.0" y2="505.0" stroke="rgb(0,0,0)" stroke-width="1"/>
          <line shape-rendering="crispEdges" x1="4850.0" y1="495.0" x2="4850.0" y2="505.0" stroke="rgb(0,0,0)" stroke-width="1"/>
          <line shape-rendering="crispEdges" x1="4950.0" y1="495.0" x2="4950.0" y2="505.0" stroke="rgb(0,0,0)" stroke-width="1"/>
          <line shape-rendering="crispEdges" x1="5050.0" y1="495.0" x2="5050.0" y2="505.0" stroke="rgb(0,0,0)" stroke-width="1"/>
          <line shape-rendering="crispEdges" x1="5150.0" y1="495.0" x2="5150.0" y2="505.0" stroke="rgb(0,0,0)" stroke-width="1"/>
          <line shape-rendering="crispEdges" x1="5250.0" y1="495.0" x2="5250.0" y2="505.0" stroke="rgb(0,0,0)" stroke-width="1"/>
          <line shape-rendering="crispEdges" x1="5350.0" y1="495.0" x2="5350.0" y2="505.0" stroke="rgb(0,0,0)" stroke-width="1"/>
          <line shape-rendering="crispEdges" x1="5450.0" y1="495.0" x2="5450.0" y2="505.0" stroke="rgb(0,0,0)" stroke-width="1"/>
          <line shape-rendering="crispEdges" x1="5550.0" y1="495.0" x2="5550.0" y2="505.0" stroke="rgb(0,0,0)" stroke-width="1"/>
          <line shape-rendering="crispEdges" x1="5650.0" y1="495.0" x2="5650.0" y2="505.0" stroke="rgb(0,0,0)" stroke-width="1"/>
          <line shape-rendering="crispEdges" x1="5750.0" y1="495.0" x2="5750.0" y2="505.0" stroke="rgb(0,0,0)" stroke-width="1"/>
          <line shape-rendering="crispEdges" x1="5850.0" y1="495.0" x2="5850.0" y2="505.0" stroke="rgb(0,0,0)" stroke-width="1"/>
     </g>
     <g transform="translate(0.0,0.0)">
          <text pointer-events="none" y="3" dy=".71em" transform="translate(-4050.0,505.0)" fill="rgb(0,0,0)" text-anchor="middle">-50</text>
          <text pointer-events="none" y="3" dy=".71em" transform="translate(-3950.0,505.0)" fill="rgb(0,0,0)" text-anchor="middle">-49</text>
          <text pointer-events="none" y="3" dy=".71em" transform="translate(-3850.0,505.0)" fill="rgb(0,0,0)" text-anchor="middle">-48</text>
          <text pointer-events="none" y="3" dy=".71em" transform="translate(-3750.0,505.0)" fill="rgb(0,0,0)" text-anchor="middle">-47</text>
          <text pointer-events="none" y="3" dy=".71em" transform="translate(-3650.0,505.0)" fill="rgb(0,0,0)" text-anchor="middle">-46</text>
          <text pointer-events="none" y="3" dy=".71em" transform="translate(-3550.0,505.0)" fill="rgb(0,0,0)" text-anchor="middle">-45</text>
          <text pointer-events="none" y="3" dy=".71em" transform="translate(-3450.0,505.0)" fill="rgb(0,0,0)" text-anchor="middle">-44</text>
          <text pointer-events="none" y="3" dy=".71em" transform="translate(-3350.0,505.0)" fill="rgb(0,0,0)" text-anchor="middle">-43</text>
          <text pointer-events="none" y="3" dy=".71em" transform="translate(-3250.0,505.0)" fill="rgb(0,0,0)" text-anchor="middle">-42</text>
          <text pointer-events="none" y="3" dy=".71em" transform="translate(-3150.0,505.0)" fill="rgb(0,0,0)" text-anchor="middle">-41</text>
          <text pointer-events="none" y="3" dy=".71em" transform="translate(-3050.0,505.0)" fill="rgb(0,0,0)" text-anchor="middle">-40</text>
          <text pointer-events="none" y="3" dy=".71em" transform="translate(-2950.0,505.0)" fill="rgb(0,0,0)" text-anchor="middle">-39</text>
          <text pointer-events="none" y="3" dy=".71em" transform="translate(-2850.0,505.0)" fill="rgb(0,0,0)" text-anchor="middle">-38</text>
          <text pointer-events="none" y="3" dy=".71em" transform="translate(-2750.0,505.0)" fill="rgb(0,0,0)" text-anchor="middle">-37</text>
          <text pointer-events="none" y="3" dy=".71em" transform="translate(-2650.0,505.0)" fill="rgb(0,0,0)" text-anchor="middle">-36</text>
          <text pointer-events="none" y="3" dy=".71em" transform="translate(-2550.0,505.0)" fill="rgb(0,0,0)" text-anchor="middle">-35</text>
          <text pointer-events="none" y="3" dy=".71em" transform="translate(-2450.0,505.0)" fill="rgb(0,0,0)" text-anchor="middle">-34</text>
          <text pointer-events="none" y="3" dy=".71em" transform="translate(-2350.0,505.0)" fill="rgb(0,0,0)" text-anchor="middle">-33</text>
          <text pointer-events="none" y="3" dy=".71em" transform="translate(-2250.0,505.0)" fill="rgb(0,0,0)" text-anchor="middle">-32</text>
          <text pointer-events="none" y="3" dy=".71em" transform="translate(-2150.0,505.0)" fill="rgb(0,0,0)" text-anchor="middle">-31</text>
          <text pointer-events="none" y="3" dy=".71em" transform="translate(-2050.0,505.0)" fill="rgb(0,0,0)" text-anchor="middle">-30</text>
          <text pointer-events="none" y="3" dy=".71em" transform="translate(-1950.0,505.0)" fill="rgb(0,0,0)" text-anchor="middle">-29</text>
          <text pointer-events="none" y="3" dy=".71em" transform="translate(-1850.0,505.0)" fill="rgb(0,0,0)" text-anchor="middle">-28</text>
          <text pointer-events="none" y="3" dy=".71em" transform="translate(-1750.0,505.0)" fill="rgb(0,0,0)" text-anchor="middle">-27</text>
          <text pointer-events="none" y="3" dy=".71em" transform="translate(-1650.0,505.0)" fill="rgb(0,0,0)" text-anchor="middle">-26</text>
          <text pointer-events="none" y="3" dy=".71em" transform="translate(-1550.0,505.0)" fill="rgb(0,0,0)" text-anchor="middle">-25</text>
          <text pointer-events="none" y="3" dy=".71em" transform="translate(-1450.0,505.0)" fill="rgb(0,0,0)" text-anchor="middle">-24</text>
          <text pointer-events="none" y="3" dy=".71em" transform="translate(-1350.0,505.0)" fill="rgb(0,0,0)" text-anchor="middle">-23</text>
          <text pointer-events="none" y="3" dy=".71em" transform="translate(-1250.0,505.0)" fill="rgb(0,0,0)" text-anchor="middle">-22</text>
          <text pointer-events="none" y="3" dy=".71em" transform="translate(-1150.0,505.0)" fill="rgb(0,0,0)" text-anchor="middle">-21</text>
          <text pointer-events="none" y="3" dy=".71em" transform="translate(-1050.0,505.0)" fill="rgb(0,0,0)" text-anchor="middle">-20</text>
          <text pointer-events="none" y="3" dy=".71em" transform="translate(-950.0,505.0)" fill="rgb(0,0,0)" text-anchor="middle">-19</text>
          <text pointer-events="none" y="3" dy=".71em" transform="translate(-850.0,505.0)" fill="rgb(0,0,0)" text-anchor="middle">-18</text>
          <text pointer-events="none" y="3" dy=".71em" transform="translate(-750.0,505.0)" fill="rgb(0,0,0)" text-anchor="middle">-17</text>
          <text pointer-events="none" y="3" dy=".71em" transform="translate(-650.0,505.0)" fill="rgb(0,0,0)" text-anchor="middle">-16</text>
          <text pointer-events="none" y="3" dy=".71em" transform="translate(-550.0,505.0)" fill="rgb(0,0,0)" text-anchor="middle">-15</text>
          <text pointer-events="none" y="3" dy=".71em" transform="translate(-450.0,505.0)" fill="rgb(0,0,0)" text-anchor="middle">-14</text>
          <text pointer-events="none" y="3" dy=".71em" transform="translate(-350.0,505.0)" fill="rgb(0,0,0)" text-anchor="middle">-13</text>
          <text pointer-events="none" y="3" dy=".71em" transform="translate(-250.0,505.0)" fill="rgb(0,0,0)" text-anchor="middle">-12</text>
          <text pointer-events="none" y="3" dy=".71em" transform="translate(-150.0,505.0)" fill="rgb(0,0,0)" text-anchor="middle">-11</text>
          <text pointer-events="none" y="3" dy=".71em" transform="translate(-50.0,505.0)" fill="rgb(0,0,0)" text-anchor="middle">-10</text>
          <text pointer-events="none" y="3" dy=".71em" transform="translate(50.0,505.0)" fill="rgb(0,0,0)" text-anchor="middle">-9</text>
          <text pointer-events="none" y="3" dy=".71em" transform="translate(150.0,505.0)" fill="rgb(0,0,0)" text-anchor="middle">-8</text>
          <text pointer-events="none" y="3" dy=".71em" transform="translate(250.0,505.0)" fill="rgb(0,0,0)" text-anchor="middle">-7</text>
          <text pointer-events="none" y="3" dy=".71em" transform="translate(350.0,505.0)" fill="rgb(0,0,0)" text-anchor="middle">-6</text>
          <text pointer-events="none" y="3" dy=".71em" transform="translate(450.0,505.0)" fill="rgb(0,0,0)" text-anchor="middle">-5</text>
          <text pointer-events="none" y="3" dy=".71em" transform="translate(550.0,505.0)" fill="rgb(0,0,0)" text-anchor="middle">-4</text>
          <text pointer-events="none" y="3" dy=".71em" transform="translate(650.0,505.0)" fill="rgb(0,0,0)" text-anchor="middle">-3</text>
          <text pointer-events="none" y="3" dy=".71em" transform="translate(750.0,505.0)" fill="rgb(0,0,0)" text-anchor="middle">-2</text>
          <text pointer-events="none" y="3" dy=".71em" transform="translate(850.0,505.0)" fill="rgb(0,0,0)" text-anchor="middle">-1</text>
          <text pointer-events="none" y="3" dy=".71em" transform="translate(950.0,505.0)" fill="rgb(0,0,0)" text-anchor="middle">0</text>
          <text pointer-events="none" y="3" dy=".71em" transform="translate(1050.0,505.0)" fill="rgb(0,0,0)" text-anchor="middle">1</text>
          <text pointer-events="none" y="3" dy=".71em" transform="translate(1150.0,505.0)" fill="rgb(0,0,0)" text-anchor="middle">2</text>
          <text pointer-events="none" y="3" dy=".71em" transform="translate(1250.0,505.0)" fill="rgb(0,0,0)" text-anchor="middle">3</text>
          <text pointer-events="none" y="3" dy=".71em" transform="translate(1350.0,505.0)" fill="rgb(0,0,0)" text-anchor="middle">4</text>
          <text pointer-events="none" y="3" dy=".71em" transform="translate(1450.0,505.0)" fill="rgb(0,0,0)" text-anchor="middle">5</text>
          <text pointer-events="none" y="3" dy=".71em" transform="translate(1550.0,505.0)" fill="rgb(0,0,0)" text-anchor="middle">6</text>
          <text pointer-events="none" y="3" dy=".71em" transform="translate(1650.0,505.0)" fill="rgb(0,0,0)" text-anchor="middle">7</text>
          <text pointer-events="none" y="3" dy=".71em" transform="translate(1750.0,505.0)" fill="rgb(0,0,0)" text-anchor="middle">8</text>
          <text pointer-events="none" y="3" dy=".71em" transform="translate(1850.0,505.0)" fill="rgb(0,0,0)" text-anchor="middle">9</text>
          <text pointer-events="none" y="3" dy=".71em" transform="translate(1950.0,505.0)" fill="rgb(0,0,0)" text-anchor="middle">10</text>
          <text pointer-events="none" y="3" dy=".71em" transform="translate(2050.0,505.0)" fill="rgb(0,0,0)" text-anchor="middle">11</text>
          <text pointer-events="none" y="3" dy=".71em" transform="translate(2150.0,505.0)" fill="rgb(0,0,0)" text-anchor="middle">12</text>
          <text pointer-events="none" y="3" dy=".71em" transform="translate(2250.0,505.0)" fill="rgb(0,0,0)" text-anchor="middle">13</text>
          <text pointer-events="none" y="3" dy=".71em" transform="translate(2350.0,505.0)" fill="rgb(0,0,0)" text-anchor="middle">14</text>
          <text pointer-events="none" y="3" dy=".71em" transform="translate(2450.0,505.0)" fill="rgb(0,0,0)" text-anchor="middle">15</text>
          <text pointer-events="none" y="3" dy=".71em" transform="translate(2550.0,505.0)" fill="rgb(0,0,0)" text-anchor="middle">16</text>
          <text pointer-events="none" y="3" dy=".71em" transform="translate(2650.0,505.0)" fill="rgb(0,0,0)" text-anchor="middle">17</text>
          <text pointer-events="none" y="3" dy=".71em" transform="translate(2750.0,505.0)" fill="rgb(0,0,0)" text-anchor="middle">18</text>
          <text pointer-events="none" y="3" dy=".71em" transform="translate(2850.0,505.0)" fill="rgb(0,0,0)" text-anchor="middle">19</text>
          <text pointer-events="none" y="3" dy=".71em" transform="translate(2950.0,505.0)" fill="rgb(0,0,0)" text-anchor="middle">20</text>
          <text pointer-events="none" y="3" dy=".71em" transform="translate(3050.0,505.0)" fill="rgb(0,0,0)" text-anchor="middle">21</text>
          <text pointer-events="none" y="3" dy=".71em" transform="translate(3150.0,505.0)" fill="rgb(0,0,0)" text-anchor="middle">22</text>
          <text pointer-events="none" y="3" dy=".71em" transform="translate(3250.0,505.0)" fill="rgb(0,0,0)" text-anchor="middle">23</text>
          <text pointer-events="none" y="3" dy=".71em" transform="translate(3350.0,505.0)" fill="rgb(0,0,0)" text-anchor="middle">24</text>
          <text pointer-events="none" y="3" dy=".71em" transform="translate(3450.0,505.0)" fill="rgb(0,0,0)" text-anchor="middle">25</text>
          <text pointer-events="none" y="3" dy=".71em" transform="translate(3550.0,505.0)" fill="rgb(0,0,0)" text-anchor="middle">26</text>
          <text pointer-events="none" y="3" dy=".71em" transform="translate(3650.0,505.0)" fill="rgb(0,0,0)" text-anchor="middle">27</text>
          <text pointer-events="none" y="3" dy=".71em" transform="translate(3750.0,505.0)" fill="rgb(0,0,0)" text-anchor="middle">28</text>
          <text pointer-events="none" y="3" dy=".71em" transform="translate(3850.0,505.0)" fill="rgb(0,0,0)" text-anchor="middle">29</text>
          <text pointer-events="none" y="3" dy=".71em" transform="translate(3950.0,505.0)" fill="rgb(0,0,0)" text-anchor="middle">30</text>
          <text pointer-events="none" y="3" dy=".71em" transform="translate(4050.0,505.0)" fill="rgb(0,0,0)" text-anchor="middle">31</text>
          <text pointer-events="none" y="3" dy=".71em" transform="translate(4150.0,505.0)" fill="rgb(0,0,0)" text-anchor="middle">32</text>
          <text pointer-events="none" y="3" dy=".71em" transform="translate(4250.0,505.0)" fill="rgb(0,0,0)" text-anchor="middle">33</text>
          <text pointer-events="none" y="3" dy=".71em" transform="translate(4350.0,505.0)" fill="rgb(0,0,0)" text-anchor="middle">34</text>
          <text pointer-events="none" y="3" dy=".71em" transform="translate(4450.0,505.0)" fill="rgb(0,0,0)" text-anchor="middle">35</text>
          <text pointer-events="none" y="3" dy=".71em" transform="translate(4550.0,505.0)" fill="rgb(0,0,0)" text-anchor="middle">36</text>
          <text pointer-events="none" y="3" dy=".71em" transform="translate(4650.0,505.0)" fill="rgb(0,0,0)" text-anchor="middle">37</text>
          <text pointer-events="none" y="3" dy=".71em" transform="translate(4750.0,505.0)" fill="rgb(0,0,0)" text-anchor="middle">38</text>
          <text pointer-events="none" y="3" dy=".71em" transform="translate(4850.0,505.0)" fill="rgb(0,0,0)" text-anchor="middle">39</text>
          <text pointer-events="none" y="3" dy=".71em" transform="translate(4950.0,505.0)" fill="rgb(0,0,0)" text-anchor="middle">40</text>
          <text pointer-events="none" y="3" dy=".71em" transform="translate(5050.0,505.0)" fill="rgb(0,0,0)" text-anchor="middle">41</text>
          <text pointer-events="none" y="3" dy=".71em" transform="translate(5150.0,505.0)" fill="rgb(0,0,0)" text-anchor="middle">42</text>
          <text pointer-events="none" y="3" dy=".71em" transform="translate(5250.0,505.0)" fill="rgb(0,0,0)" text-anchor="middle">43</text>
          <text pointer-events="none" y="3" dy=".71em" transform="translate(5350.0,505.0)" fill="rgb(0,0,0)" text-anchor="middle">44</text>
          <text pointer-events="none" y="3" dy=".71em" transform="translate(5450.0,505.0)" fill="rgb(0,0,0)" text-anchor="middle">45</text>
          <text pointer-events="none" y="3" dy=".71em" transform="translate(5550.0,505.0)" fill="rgb(0,0,0)" text-anchor="middle">46</text>
          <text pointer-events="none" y="3" dy=".71em" transform="translate(5650.0,505.0)" fill="rgb(0,0,0)" text-anchor="middle">47</text>
          <text pointer-events="none" y="3" dy=".71em" transform="translate(5750.0,505.0)" fill="rgb(0,0,0)" text-anchor="middle">48</text>
          <text pointer-events="none" y="3" dy=".71em" transform="translate(5850.0,505.0)" fill="rgb(0,0,0)" text-anchor="middle">49</text>
     </g>
     <g transform="translate(0.0,0.0)">
          <path d="M-50.0,461.9067005121701L-48.0,466.32336210775634L-46.000000000000114,471.1013545639594L-44.0,476.1772722058496L-42.0,481.48460056265446L-40.0,486.95460817066L-38.000000000000114,492.51725915853L-36.0,498.10213424855306L-34.0,503.6393477896424L-32.0,509.06044858974275L-30.000000000000114,514.2992926334775L-27.999999999999886,519.2928762500253L-26.0,523.9821189286438L-24.0,528.3125857552866L-22.000000000000114,532.2351403516623L-19.999999999999886,535.7065202244434L-18.0,538.689827562102L-16.0,541.1549297336359L-14.0,543.0787650297611L-11.999999999999886,544.4455505245987L-10.0,545.2468903054885L-8.0,545.4817837010257L-6.0,545.1565345133102L-3.9999999999998863,544.2845636106357L-2.0,542.8861285426419L0.0,540.9879550834735L2.0,538.6227867726918L3.9999999999998863,535.8288595929183L6.0,532.6493098831318L8.0,529.1315244245839L10.0,525.326442341579L11.999999999999886,521.2878190230346L14.0,517.0714626859597L16.0,512.7344544641029L18.0,508.33436301158173L19.999999999999886,503.92846456207707L22.000000000000114,499.57297918112766L24.0,495.32233359639866L26.0,491.2284604947425L27.999999999999886,487.34014354374483L30.000000000000114,483.7024166393404L32.0,480.356025011901L34.0,477.3369548543026L36.0,474.6760370816113L38.000000000000114,472.3986297090204L40.0,470.5243821592569L42.0,469.06708360017774L44.0,468.03459618547936L46.000000000000114,467.428872844117L48.0,467.2460580549915L50.0,467.47666886991965L52.0,468.1058523266347L53.999999999999886,469.11371434030093L56.0,470.4757141914896L58.0,472.16311785413757L60.0,474.14350264057794L62.000000000000114,476.3813049925219L64.0,478.8384027252888L66.0,481.47472264419366L68.0,484.24886420124074L69.99999999999989,487.1187297496905L72.00000000000011,490.04215198398884L74.0,492.97750932133545L76.0,495.8843202850956L77.99999999999989,498.72380838364336L80.00000000000011,501.4594295335531L82.0,504.05735474398017L84.0,506.4869015487552L86.0,508.72090853176576L88.00000000000011,510.7360482261L90.0,512.5130746635173L92.0,514.0370028927149L94.0,515.2972188565202L96.00000000000011,516.2875191032797L98.0,517.0060808898098L100.0,517.4553642961271L102.0,517.6419489997841L103.99999999999989,517.5763093348119L106.0,517.272532172521L108.0,516.7479829954066L110.0,516.0229262790205L112.00000000000011,515.120106939213L114.0,514.0643001345759L116.0,512.8818371287509L118.0,511.60011520905863L119.99999999999989,510.2470998228835L122.00000000000011,508.8508271297465L124.0,507.4389150752171L126.0,506.03809087493204L127.99999999999989,504.6737424571192L130.0000000000001,503.3695009560313L132.0,502.1468607843384L134.0,501.0248431490045L136.0,500.01970812334656L138.0000000000001,499.1447195598519L140.0,498.40996623717103L142.0,497.8222416946031L144.0,497.3849842332069L146.0000000000001,497.09827756968724L148.0,496.95891163301394L150.0,496.96050200985786L152.0,497.0936655887458L154.0,497.3462490392032L156.0,497.70360590526434L158.0,498.1489173058877L160.0,498.66355053020055L162.0,499.22744920403443L164.0,499.819548195326L166.0,500.41820602757616L168.0,501.00164728875916L170.0,501.5484073622765L172.0000000000001,502.0377717691921L174.0,502.45020249767606L176.0,502.7677439049585L178.0,502.9744011059295L180.0000000000001,503.0564842057624L182.0,503.0029122846704L184.0,502.80547169269965L186.0,502.4590239511845L188.0,501.9616593737574L190.0,501.3147934009318L192.0,500.5232035745954L194.0,499.59500604777435L196.0,498.54157151565977L198.0,497.377381450676L200.0,496.1198265117203L202.0,494.7889499601305L204.0,493.40713983729626L206.0,491.9987745265317L208.0,490.5898271210958L210.0,489.2074347383L212.0,487.8794395448766L214.0,486.63390878104417L216.0,485.4986414812537L218.0,484.50066988153833L220.0,483.66576367142727L222.0000000000001,483.01794528925564L224.0,482.57902437195366L226.0,482.36815925461883L228.0,482.4014530738532L230.0000000000001,482.69159156639455L232.0,483.24752907735626L234.0,484.0742286083886L236.0,485.17246095513156L238.0,486.5386671166409L240.0,488.1648872197025L242.0,490.0387582019228L244.0,492.14358145395636L246.0,494.45846054880076L248.0,496.95850810080117L250.0,499.6151197152762L252.0,502.39631192791114L254.0,505.2671200075124L256.0,508.19005052218387L258.0,511.12558266259316L260.0,514.032711490956L262.0,516.8695255538127L264.0,519.5938106723431L266.0,522.16367121619L268.0,524.5381597841028L270.0,526.6779059640342L272.0000000000001,528.5457347314834L274.0,530.1072650708278L276.0,531.3314795709323L278.0,532.1912560522926L280.0000000000001,532.663852725065L282.0,532.7313389501944L284.0,532.3809643722731L286.0,531.6054600035L288.0,530.4032657523228L290.0,528.7786798954992L292.0,526.7419270744793L294.0,524.3091425410478L296.0,521.5022715668651L298.0,518.3488841499924L300.0,514.8819063811104L302.0,511.13927105520526L304.0,507.16349131312967L306.0,503.0011622540419L308.0,498.70239655715955L310.0,494.32020117315085L312.0,489.9098030763644L314.0,485.5279328947893L316.0,481.2320759423018L318.0,477.0797007562245L320.0,473.1274756830612L322.0000000000001,469.4304843489996L324.0,466.04145099395066L326.0,463.0099866352135L328.0,460.38186685820835L330.0000000000001,458.1983517082115L332.0,456.49555768203936L334.0,455.3038911976197L336.0,454.64755216008336L338.0,454.5441153550239L340.0,455.0041963945034L342.0,456.03120783254303L344.0,457.6212098690928L346.0,459.7628587910749L348.0,462.43745497339023L350.0,465.61909090007896L352.0,469.2748982849764L354.0,473.3653919915524L356.0,477.8449070925175L358.0,482.66212409043226L360.0,487.76067605978403L362.0,493.079830286796L364.0,498.55523589275947L366.0,504.1197279457688L368.0,509.7041777088139L370.0,515.2383779520568L372.0,520.6519516846438L374.0,525.8752722455772L376.0,530.8403824406739L378.0,535.4819003280804L380.0,539.7378993403196L382.0,543.5507506862995L384.0,546.8679163995506L386.0,549.64268198431L388.0,551.8348183517386L390.0,553.4111636252004L392.0,554.3461164146684L394.0,554.6220333026031L396.0,554.2295245319302L398.0,553.1676432243986L400.0,551.443964866608L402.0,549.0745552623581L404.0,546.0838266438079L406.0,542.5042831398707L408.0,538.3761582976821L410.0,533.7469488212485L412.0,528.6708501102567L414.0,523.2081005318132L416.0,517.4242426198126L418.0,511.38931055305176L420.0,505.1769542978683L422.0,498.86351169936944L424.0,492.52704055441103L426.0,486.2463232886556L428.0,480.0998572806086L430.0,474.1648441212643L432.0,468.51619116487814L434.0,463.2255386130297L436.0,458.36032508146025L438.0,453.9829041307082L440.00000000000006,450.1497236031345L442.0,446.9105788088384L444.00000000000006,444.3079496516268L446.0,442.37643069623664L448.00000000000006,441.14226196389643L450.0,440.62296692130997L452.00000000000006,440.8271027159699L454.0,441.75412622741703L456.00000000000006,443.3943779696368L458.0,445.7291843150117L460.00000000000006,448.7310769363269L462.0,452.3641268015954L463.99999999999994,456.584388528192L466.0,461.3404494286938L468.0,466.57407618105015L470.0,472.220950749273L472.0,478.21148598558307L474.0,484.47171027719L476.0,490.92420967515756L478.0,497.48911517181347L480.0,504.08512218736337L482.0,510.6305288941206L484.0,517.0442797538881L486.00000000000006,523.2470005740711L488.0,529.1620115019255L490.00000000000006,534.7163046724938L492.0,539.8414737001042L494.00000000000006,544.4745828494233L496.0,548.5589645310416L498.00000000000006,552.0449347274588L500.0,554.8904170549406L502.00000000000006,557.0614673900868L504.0,558.5326923203377L506.00000000000006,559.2875560969678L508.0,559.3185722579949L510.00000000000006,558.62737762662L512.0,557.2246879573947L514.0,555.1301360759866L516.0,552.3719949178567L518.0,548.986789395231L520.0,545.0188024898408L522.0,540.519482361224L524.0,535.5467585581671L526.0,530.164276606742L528.0,524.440561306478L530.0,518.4481199824925L532.0,512.2624977037328L534.0,505.9612970759852L536.0,499.62317564520026L538.0,493.3268341967665L540.0,487.15000930663746L542.0,481.16848339039234L544.0,475.45512520835393L546.0,470.07897332337996L548.0,465.1043743797027L550.0,460.59018728539957L552.0,456.58906344896855L554.0,453.14681215534915L556.0,450.30185898356115L558.0,448.08480388357293L560.0,446.5180841619622L562.0,445.61574619345515L564.0,445.3833281983234L566.0,445.81785492430447L568.0,446.907943566785L570.0,448.6340187730726L572.0,450.9686331259509L574.0,453.8768881080483L576.0,457.31694923066595L578.0,461.2406477862886L580.0,465.59416056934947L582.0,470.3187579196717L584.0,475.35160959026905L586.0,480.6266372368607L588.0,486.07540177935016L590.0,491.62801350232587L592.0,497.2140525466313L594.0,502.7634873992564L596.0,508.2075791137689L598.0,513.4797592855105L600.0,518.5164702597378L602.0,523.2579566595239L604.0,527.6489980741039L606.0,531.6395736361343L608.0,535.185450224767L610.0,538.2486871458281L612.0,540.7980513444431L614.0,542.8093384819231L616.0,544.2655965392703L618.0,545.1572499754529L620.0,545.4821238502946L622.0,545.2453687000734L624.0,544.4592883095023L626.0,543.1430738378681L628.0,541.3224490117047L630.0,539.0292322742985L632.0,536.3008228676775L634.0,533.1796188009807L636.0,529.7123755173227L638.0,525.9495147983578L640.0,521.9443940324678L642.0,517.7525464117379L644.0,513.4309029096037L646.0,509.03700702246556L648.0,504.62823323405837L650.0,500.26101998261436L652.0,495.9901275816329L654.0,491.8679310713744L656.0,487.9437573679236L658.0,484.26327533973733L660.0,480.86794658954204L662.0,477.7945437654877L664.0,475.07474218408845L666.0,472.73478943439534L668.0,470.79525646461514L670.0,469.2708724463199L672.0,468.1704444851306L674.0,467.4968620181868L676.0,467.2471845255725L678.0,467.4128100025466L680.0,467.9797205087492L682.0,468.9288000454368L684.0,470.23621902716593L686.0,471.87387872377155L688.0,473.80990826412096L690.0,476.0092061254775L692.0,478.434017490075L694.0,481.0445384405391L696.0,483.79953769290114L698.0,486.65698643296105L700.0,489.5746868293561L702.0,492.51088994356775L704.0,495.42489403981983L706.0,498.2776147110647L708.0,501.0321187737177L710.0,503.65411453450366L712.0,506.11239178702544L714.0,508.37920574138053L716.0,510.43060001390756L718.0,512.2466647915196L720.0,513.8117273207329L722.0,515.1144729395245L724.0,516.1479959542337L726.0,516.9097807474134L728.0,517.4016145695157L730.0,517.6294345015751L732.0,517.603112062243L734.0,517.3361798560384L736.0,516.8455055069954L738.0,516.1509188806372L740.0,515.2747992565139L742.0,514.2416296640265L744.0,513.0775260282627L746.0,511.8097490842359L748.0,510.46620720327206L750.0,509.0749583322805L752.0,507.66371917519587L754.0000000000001,506.2593895478635L756.0,504.88759951683386L758.0,503.5722864945791L760.0,502.3353089159511L762.0000000000001,501.1961024722993L764.0,500.1713841411138L766.0,499.2749084322386L768.0,498.5172793896544L770.0,497.90582095454556L772.0,497.44450732559545L774.0,497.1339539614297L776.0,496.9714688733961L778.0,496.95116287000343L780.0,497.0641164527384L782.0,497.29860014159374L784.0,497.640344141806L786.0,498.07285246445196L788.0000000000001,498.57775589507906L790.0,499.13519757756904L792.0,499.7242444546539L794.0,500.32331739004746L796.0000000000001,500.9106324964616L798.0,501.46464601348487L800.0,501.9644950222019L802.0,502.39042635039755L804.0000000000001,502.72420621219817L806.0,502.9495034361087L808.0,503.0522395608237L810.0,503.0208996123493L812.0000000000001,502.84679801061117L814.0,502.52429477902245L816.0,502.0509580352163L818.0,501.4276696128364L820.0000000000001,500.6586715893974L822.0,499.751552459401L824.0,498.71717268011L826.0,497.56953031423615L828.0,496.32556848368955L830.0000000000001,495.0049273159636L832.0,493.6296439944596L834.0,492.2238054014101L836.0,490.8131586531132L838.0000000000001,489.4246855589824L840.0,488.08614767666353L842.0,486.82560917473734L844.0,485.6709451434008L846.0000000000001,484.6493433047268L848.0,483.7868072621559L850.0,483.10766949013544L852.0,482.63412219757913L854.0000000000001,482.3857740033095L856.0,482.3792400400654L858.0,482.6277726601378L860.0,483.14093935624373L862.0000000000001,483.9243538436601L864.0,484.9794654834086L866.0,486.3034113724427L868.0,487.8889344977639L870.0000000000001,489.72437036083323L872.0,491.79370344118576L874.0,494.07669379925863L876.0,496.5490730341127L878.0,499.18280772832867L880.0000000000001,501.94642744631636L882.0,504.80541331988667L884.0,507.72264227208694L886.0,510.65888101222527L888.0000000000001,513.5733230961199L890.0,516.4241615991679L892.0,519.1691893078657L894.0,521.7664178084383L896.0000000000001,524.1747064481588L898.0,526.3543918728514L900.0,528.267908708204L902.0,529.8803919560706L904.0000000000001,531.1602518211464L906.0,532.0797119673198L908.0,532.6153026237182L910.0,532.7483005129488L912.0000000000001,532.4651082513327L914.0,531.757566664153L916.0,530.6231943574671L918.0,529.0653498795984L920.0000000000001,527.0933128763147L922.0000000000001,524.722281778935L924.0,521.9732867481614L926.0,518.8730178114504L927.9999999999999,515.4535693607808L930.0000000000001,511.75210340297247L932.0,507.81043515842845L934.0,503.674545768615L936.0,499.39402798059126L938.0000000000001,495.0214717118537L940.0,490.6117973451398L942.0,486.22154544615796L944.0,481.90813232448465L946.0000000000001,477.7290814575766L948.0,473.7412412603268L950.0,470.0L952.0,466.5585088229917L954.0000000000001,463.46692387194855L956.0,460.7716783279791L958.0,458.514794913669L960.0,456.73324894143775L962.0000000000001,455.4583913935654L964.0,454.71544078233956L966.0,454.5230516705551L968.0,454.8929667453316L970.0000000000001,455.82975824493906L972.0000000000001,457.3306633536848L974.0,459.38551691994917L976.0,461.97678353436334L977.9999999999999,465.0796896470504L980.0000000000001,468.66245502362324L982.0,472.68662145847895L984.0,477.10747530026435L986.0,481.8745590174319L988.0000000000001,486.93226576047766L990.0,492.22050967987985L992.0,497.67546365227327L994.0,503.2303550680008L996.0000000000001,508.8163094556433L998.0,514.3632309764041L1000.0,519.800708224612L1002.0,525.0589333292854L1004.0000000000001,530.0696220728653L1006.0,534.7669226316813L1008.0,539.0883006011097L1010.0,542.9753881968588L1012.0000000000001,546.3747859202772L1014.0,549.23880553546L1016.0,551.5261439224449L1018.0,553.202478234881L1020.0000000000001,554.2409737911316L1022.0,554.6226972517201L1024.0,554.3369288685117L1026.0,553.3813689156065L1028.0,551.7622348108227L1030.0,549.4942468909835L1032.0,546.6005022942322L1034.0,543.1122379079993L1036.0,539.06848484139L1038.0,534.5156183550449L1040.0,529.5068086096029L1042.0,524.1013789559654L1044.0,518.3640797677082L1046.0,512.3642869903234L1048.0,506.1751356370662L1050.0,499.872599382071L1052.0,493.53452817506536L1054.0,487.2396564172502L1056.0,481.0665946858495L1058.0,475.0928182687046L1060.0,469.39366586586095L1062.0,464.0413617304023L1064.0,459.10407425653716L1066.0,454.64502358211075L1068.0,450.7216501608982L1070.0,447.3848554850142L1072.0,444.67832520975537L1074.0,442.63794386437075L1076.0,441.29130913688505L1078.0,440.6573524151074L1080.0,440.7460708669212L1082.0,441.55837486965186L1084.0,443.08605307066455L1086.0,445.31185579998794L1088.0,448.2096959818675L1090.0,451.7449651270525L1092.0,455.87496045260787L1094.0,460.5494176919559L1096.0,465.7111427449357L1098.0,471.2967339951391L1100.0,477.23738590769653L1102.0,483.45976343157963L1104.0,489.88693578126686L1106.0,496.4393573761937L1108.0,503.0358830837183L1110.0,509.59480445094766L1112.0,516.0348933290688L1114.0,522.2764391945783L1116.0,528.2422665564313L1118.0,533.8587191054073L1120.0,539.0565977083513L1122.0,543.7720399691975L1124.0,547.947329862448L1126.0,551.5316268822696L1128.0,554.4816052288711L1130.0,556.7619947585351L1132.0,558.3460167382123L1134.0,559.2157088520112L1136.0,559.3621353860424L1138.0,558.785480049813L1140.0,557.4950204558315L1142.0,555.5089848530686L1144.0,552.8542932730447L1146.0,549.5661867784215L1148.0,545.6877499823257L1150.0,541.2693334123067L1152.0,536.3678836068791L1154.0,531.046190037396L1156.0,525.3720590274368L1158.0,519.4174257816071L1160.0,513.2574164232458L1162.0,506.9693725656722L1164.0,500.6318513962851L1166.0,494.32361453128175L1168.0,488.1226189978142L1170.0,482.10502361914143L1172.0,476.34422381854233L1174.0,470.90992742346145L1176.0,465.8672834491455L1178.0,461.2760750796018L1180.0,457.18998715408657L1182.0,453.6559574224018L1184.0,450.7136196668599L1186.0,448.3948455191693L1188.0,446.72339044451223L1190.0,445.7146479415469L1192.0,445.3755145357229L1194.0,445.7043666444571L1196.0,446.6911488869837L1198.0,448.3175719197005L1200.0,450.55741641992904L1202.0,453.37693843697866L1204.0,456.73536999824387L1206.0,460.585507617615L1208.0,464.87438022033336L1210.0,469.5439869875107L1212.0,474.53209474814093L1214.0,479.77308381780165L1216.0,485.19883061061387L1218.0,490.7396149413551L1220.0,496.3250396926575L1222.0,501.8849504502646L1224.0,507.35034280738773L1226.0,512.6542453048703L1228.0,517.7325664024804L1230.0,522.5248944612104L1232.0,526.9752404479354L1234.0,531.0327139410497L1236.0,534.6521240058944L1238.0,537.7944976073377L1240.0,540.4275094177801L1242.0,542.5258181449985L1244.0,544.0713058274234L1246.0,545.0532179059088L1248.0,545.4682032615144L1250.0,545.3202547889149L1252.0,544.6205524355016L1254.0,543.3872119581993L1256.0,541.6449439152537L1258.0,539.4246286014929L1260.0,536.7628137366653L1262.0,533.7011427126708L1264.0,530.2857220836374L1266.0,526.5664377314165L1268.0,522.5962297487056L1270.0,518.4303365451044L1272.0,514.1255189926829L1274.0,509.73927558386583L1276.0,505.32905957473673L1278.0,500.9515089324505L1280.0,496.6616995998681L1282.0,492.5124321393302L1284.0,488.5535612283839L1286.0,484.83137676275885L1288.0,481.3880444873471L1290.0,478.2611131372678L1292.0,475.48309404262L1294.0,473.0811180477763L1296.0,471.07667343547723L1298.0,469.4854273447677L1300.0,468.3171319475746L1302.0,467.5756154193351L1304.0,467.2588565222983L1306.0,467.3591404334387L1308.0,467.8632923092414L1310.0,468.75298400302927L1312.0,470.0051083521132L1314.0,471.5922145456241L1316.0,473.4829972818785L1318.0,475.6428317372422L1320.0,478.03434580575527L1322.0,480.61802063736855L1324.0,483.35281020768525L1326.0,486.19677049671907L1328.0,489.10768883943916L1330.0,492.04370413572735L1332.0,494.96390886878237L1334.0,497.8289242738832L1336.0,500.60144051683824L1338.0,503.24671437461717L1340.0,505.73301764920114L1342.0,508.03203037769725L1344.0,510.11917381403094L1346.0,511.9738791357847L1348.0,513.5797888587592L1350.0,514.924889005797L1352.0,516.0015711590211L1354.0,516.8066246095043L1356.0,517.3411598891004L1358.0,517.6104660097067L1360.0,517.6238047300749L1362.0,517.3941461047175L1364.0,516.9378504297676L1366.0,516.2743024742733L1368.0,515.4255045612217L1370.0,514.4156356309638L1372.0,513.2705838727031L1374.0,512.0174608411813L1376.0,510.68410518134687L1378.0,509.29858416128747L1380.0,507.88870116263854L1382.0,506.48151709961627L1384.0,505.1028934362463L1386.0,503.77706405161007L1388.0,502.52624267215197L1390.0,501.37027195705815L1392.0,500.32631959776086L1394.0,499.4086259874226L1396.0,498.6283071436784L1398.0,497.99321564182486L1400.0,497.5078613506704L1402.0,497.1733927745907L1404.0,496.9876388084617L1406.0,496.94520972267117L1408.0,497.03765522876404L1410.0,497.2536765475101L1412.0,497.57938852473455L1414.0,497.9986270297106L1416.0,498.4932961388686L1418.0,499.0437489653308L1420.0,499.62919545230176L1422.0,500.2281300140005L1424.0,500.8187715883297L1426.0,501.3795084657788L1428.0,501.8893401822219L1430.0,502.32830881050734L1432.0,502.6779121562876L1434.0,502.92149165479367L1436.0,503.04458817270717L1438.0,503.0352594366341L1440.0,502.88435342893797L1442.0,502.58573280326607L1444.0,502.1364461649916L1446.0,501.5368429236927L1448.0,500.7906293423502L1450.0,499.90486436688167L1452.0,498.88989480504983L1454.0,497.7592304202955L1456.0,496.5293604980953L1458.0,495.21951441447266L1460.0,493.8513696730302L1462.0,492.44871176351705L1464.0,491.0370510174571L1466.0,489.6432023815959L1468.0,488.29483468591434L1470.0,487.01999653901737L1472.0,485.8466264306986L1474.0,484.8020549518384L1476.0,483.91250724975623L1478.0,483.2026139187624L1480.0,482.69493847890067L1482.0,482.40952942071L1484.0,482.36350449209283L1486.0,482.57067447893246L1488.0,483.04121318963087L1490.0,483.7813797027816L1492.0,484.79329818597387L1494.0,486.07479975303L1496.0,487.6193299090611L1498.0,489.41592415098495L1500.0,491.44925326017193L1502.0,493.6997387589081L1504.0,496.1437379194231L1506.0,498.7537966295694L1508.0,501.4989673493446L1510.0,504.34518835361365L1512.0,507.2557194646159L1514.0,510.19162854845854L1516.0,513.112322197382L1518.0,515.9761132575675L1520.0,518.7408172029197L1522.0,521.3643688093252L1524.0,523.8054501605549L1526.0,526.0241207236343L1528.0,527.9824400736602L1530.0,529.6450738292833L1532.0,530.9798734818596L1534.0,531.9584210631006L1536.0,532.5565299952593L1538.0,532.7546939998017L1540.0,532.5384765984793L1542.0,531.898834516143L1544.0,530.8323691771861L1546.0,529.3415014651182L1548.0,527.4345659740227L1550.0,525.125822106666L1552.0,522.4353805510124L1554.0,519.3890448780496L1556.0,516.0180692318272L1558.0000000000002,512.3588343097001L1560.0,508.4524450391149L1562.0,504.34425452913666L1564.0,500.0833199930389L1566.0,495.72179738592615L1568.0,491.31428246284804L1570.0,486.91710682351675L1572.0,482.5875982562944L1574.0000000000002,478.3833153148503L1576.0,474.3612665457915L1578.0,470.5771251265211L1580.0,467.08444986351105L1582.0,463.93392353802835L1584.0,461.1726194673797L1586.0,458.8433068753109L1588.0,456.98380523794833L1590.0,455.6263971964587L1592.0000000000002,454.7973089113825L1594.0,454.5162658854375L1596.0,454.7961313124463L1598.0,455.64263293271574L1600.0,457.0541832040651L1602.0,459.02179634860727L1604.0,461.52910452535855L1606.0,464.55247402580494L1608.0000000000002,468.06122101240646L1610.0,472.0179249378848L1612.0,476.37883641538656L1614.0,481.0943749755396L1616.0,486.1097108649934L1618.0,491.3654238305332L1620.0,496.7982307107494L1622.0,502.3417726397876L1624.0000000000002,507.9274517698254L1626.0,513.4853066539265L1628.0,518.9449148103826L1630.0,524.2363105230424L1632.0,529.2909056270478L1634.0,534.0424008909702L1636.0,538.4276756375889L1638.0,542.3876434470358L1640.0,545.8680621559681L1642.0000000000002,548.8202869006907L1644.0,551.2019556442525L1646.0,552.9775974688487L1648.0,554.1191548944944L1650.0,554.6064125902142L1652.0,554.4273260602333L1654.0,553.578245198739L1656.0,552.064028995083L1658.0000000000002,549.8980491181026L1660.0,547.1020815939205L1662.0,543.7060872959039L1664.0,539.7478834678318L1666.0,535.27270998109L1668.0,530.3326954634986L1670.0,524.9862298112498L1672.0,519.2972508873258L1674.0000000000002,513.3344544016303L1676.0,507.1704370431868L1678.0,500.880783877938L1680.0,494.54311182360874L1682.0,488.2360816542055L1684.0,482.03839146182077L1686.0,476.027764805364L1688.0,470.27994689998L1690.0000000000002,464.867722144979L1692.0000000000002,459.85996605229366L1694.0,455.32074422445965L1696.0,451.3084704460847L1698.0,447.87513520309903L1700.0,445.06561503967316L1702.0,442.91707211539165L1704.0,441.45845214902033L1706.0,440.71008764570524L1708.0000000000002,440.68341191898594L1710.0,441.3807879562306L1712.0,442.7954546557428L1714.0,444.91159140640036L1716.0,447.7045004073552L1718.0,451.1409045574028L1720.0,455.1793572024043L1722.0,459.7707585355845L1724.0000000000002,464.85897201995306L1726.0,470.38153286392526L1728.0,476.270439348732L1730.0,482.4530166961274L1732.0,488.85284219250724L1734.0,495.3907194639962L1736.0,501.9856891376551L1738.0,508.5560626356563L1740.0000000000002,515.0204655387861L1742.0000000000002,521.2988768271666L1744.0,527.3136503614659L1746.0,532.9905052061918L1748.0,538.2594718148914L1750.0,543.0557816892779L1752.0,547.3206888825232L1754.0,551.0022126307904L1756.0,554.055791454036L1758.0000000000002,556.444840252798L1760.0,558.141203225882L1762.0,559.1254968269095L1764.0,559.3873384465594L1766.0,558.9254580320783L1768.0,557.7476914154546L1770.0,555.8708556953983L1772.0,553.3205085845445L1774.0000000000002,550.1305951709073L1776.0,546.3429870307277L1778.0,542.006920048394L1780.0,537.1783386289854L1782.0,531.9191552122928L1784.0,526.2964350975913L1786.0,520.3815175512864L1788.0,514.2490849821261L1790.0000000000002,507.97619262028L1792.0000000000002,501.6412716188684L1794.0,495.3231188033028L1796.0,489.09988642157816L1798.0,483.04808519603137L1800.0,477.24161374552455L1802.0,471.7508270401398L1804.0,466.64165597445947L1806.0,461.9747894087669L1808.0000000000002,457.80492914065826L1810.0,454.1801272452449L1812.0,451.14121407481537L1814.0,448.7213239546902L1816.0,446.9455242685094L1818.0,445.8305522121333L1820.0,445.384662030248L1822.0,445.60758405393256L1824.0000000000002,446.4905953514243L1826.0,448.01670030876755L1828.0,450.16091799235255L1830.0,452.89067173144804L1832.0,456.1662750148404L1834.0,459.94150653964664L1836.0,464.1642660990856L1838.0,468.77730196468065L1840.0000000000002,473.7189995205829L1842.0000000000002,478.9242201550213L1844.0,484.32517881590286L1846.0,489.85234820155733L1848.0,495.4353772887548L1850.0,501.0040118010166L1852.0,506.48900429132567L1854.0,511.82300175258314L1856.0,516.9413990722151L1858.0000000000002,521.7831472076205L1860.0,526.291505667902L1862.0,530.4147297338022L1864.0,534.1066838192957L1866.0,537.327373460628L1868.0,540.0433895959134L1870.0,542.2282600537463L1872.0,543.8627044846389L1874.0000000000002,544.9347903257292L1876.0,545.4399887679439L1878.0,545.3811310762534L1880.0,544.7682669785045L1882.0,543.6184281676458L1884.0,541.9553012376174L1886.0,539.8088155773112L1888.0,537.2146528635011L1890.0000000000002,534.2136858074766L1892.0000000000002,530.8513547078761L1894.0,527.176991132145L1896.0,523.2430986813765L1898.0,519.1046012801374L1900.0,514.8180697686039L1902.0,510.44093775538084L1904.0,506.030717714467L1906.0,501.6442281798927L1908.0000000000002,497.336842609722L1910.0,493.1617700626631L1912.0,489.16937726277376L1914.0,485.40656092999836L1916.0,481.91617843751794L1918.0,478.73654393389404L1920.0,475.9009960527994L1922.0,473.4375422411199L1924.0000000000002,471.36858358370705L1926.0,469.7107228071352L1928.0,468.4746569230458L1930.0,467.6651547419042L1932.0,467.28111826801376L1934.0,467.3157257940079L1936.0,467.75665336476743L1938.0,468.5863701930434L1940.0000000000002,469.7825025972551L1942.0000000000002,471.3182601099995L1944.0,473.16291658640193L1946.0,475.28233843557007L1948.0,477.6395515154052" fill="none" stroke="rgb(0,0,0)" stroke-width="1"/>
     </g>
     <g transform="translate(0.0,0.0)">
          <text pointer-events="none" x="3" y="-3" transform="translate(50,50)" fill="rgb(0,0,0)">f(x) = cos(5x) + sin(5x)</text>
     </g>
     <g transform="translate(0.0,0.0)">
          <path d="M-50.0,468.52046799623656L-40.0,478.4161593403894L-30.000000000000114,429.4686258682141L-19.999999999999886,383.9405457204696L-10.0,347.57612547952215L0.0,324.5590926080638L10.0,317.9124179402636L19.999999999999886,329.2083659143128L30.000000000000114,358.34697862498024L40.0,403.4447246680154L50.0,460.56029729358374L60.0,471.1830381749603L69.99999999999989,405.19158063473776L80.00000000000011,343.102097494125L90.0,292.2601004981152L100.0,258.63388853403126L110.0,246.92091964133328L119.99999999999989,260.07715099996244L130.0000000000001,298.9249181175795L140.0,361.8934306118225L150.0,444.67381788545435L160.0,455.7292586364964L170.0,353.1266313418389L180.0000000000001,253.27952925727413L190.0,166.95467132833755L200.0,104.30655475063031L210.0,74.57920553851329L220.0,85.36372255125298L230.0000000000001,141.91453525174813L240.0,246.5946710597807L250.0,398.3390614241523L260.0,405.14475528450964L270.0,174.48715497381363L280.0000000000001,-82.14563162988316L290.0,-351.9659633754852L300.0,-620.9902416241366L310.0,-874.6749800671594L320.0,-1098.8617819606798L330.0000000000001,-1280.7312628434556L340.0,-1409.6824677704653L350.0,-1478.0698995806006L360.0,-1481.7419462781236L370.0,-1420.3394320769908L380.0,-1297.331017109852L390.0,-1119.7820080738766L400.0,-897.8733124598268L410.0,-644.2062448272652L420.0,-372.9453972323747L430.0000000000001,-98.86569358698625L440.00000000000006,163.61012170995878L450.0,401.03041655911784L460.00000000000006,394.9826845500447L470.0,236.5690013023625L480.00000000000006,126.25335464173145L490.00000000000006,65.74256930700744L500.0,53.09438246757077L510.00000000000006,83.2592118899289L520.0,148.61489727802063L530.0,239.64733116822845L540.0,345.6951277458194L550.0,454.93765701831956L560.0,436.91609421081887L570.0,347.61203464915013L580.0,279.2600743792808L590.0,236.91831868663724L600.0,222.59517593510554L610.0,235.65723381651026L620.0,273.07336237749405L630.0,329.8005727329603L640.0,399.22783478604765L650.0,472.05945226620474L660.0,448.5869227380796L670.0,384.3123836449564L680.0,333.47768957942276L690.0,300.883600752403L700.0,288.89713190386055L710.0,297.80373014959946L720.0,325.90467246360095L730.0,369.726727172593L740.0,424.23939581711306L750.0,480.07128329106683L760.0,451.7745750065493L770.0000000000001,399.25244225227993L780.0,357.1512291438146L790.0,329.90760172201203L800.0,319.88474745648296L810.0,327.66784601981954L820.0000000000001,352.0955372612509L830.0000000000001,390.3775660702786L840.0,438.1495409250781L850.0,484.02782367943746L860.0,450.70378060079145L870.0000000000001,403.67332433905153L880.0000000000001,365.8467996559375L890.0,341.4233473010505L900.0,332.7724078324999L910.0000000000001,340.63551191148736L920.0000000000001,364.11262566672474L930.0000000000001,400.72128082826066L940.0,446.31459408505384L950.0,485.2595318465977L960.0000000000001,446.31459408505293L970.0000000000001,400.72128082826L980.0000000000001,364.11262566672417L990.0,340.63551191148724L1000.0,332.7724078324999L1010.0000000000001,341.4233473010506L1020.0000000000001,365.84679965593796L1030.0,403.67332433905233L1040.0,450.70378060079145L1050.0,484.02782367943746L1060.0000000000002,438.1495409250774L1070.0,390.3775660702779L1080.0,352.09553726125L1090.0,327.66784601981954L1100.0,319.88474745648296L1110.0000000000002,329.9076017220127L1120.0,357.15122914381527L1130.0,399.25244225228084L1140.0,451.7745750065493L1150.0,480.07128329106683L1160.0000000000002,424.23939581711204L1170.0,369.72672717259184L1180.0,325.9046724636005L1190.0,297.80373014959935L1200.0,288.89713190386055L1210.0,300.8836007524037L1220.0,333.4776895794233L1230.0,384.31238364495687L1240.0,448.5869227380806L1250.0,472.05945226620474L1260.0,399.22783478604583L1270.0,329.80057273295904L1280.0,273.07336237749405L1290.0,235.6572338165097L1300.0,222.59517593510554L1310.0,236.91831868663758L1320.0,279.2600743792815L1330.0,347.6120346491508L1340.0,436.9160942108201L1350.0,454.93765701831956L1360.0,345.69512774581676L1370.0,239.64733116822663L1380.0,148.61489727801995L1390.0,83.25921188992822L1400.0,53.09438246757077L1410.0,65.74256930700824L1420.0,126.25335464173304L1430.0,236.56900130236363L1440.0,394.982684550047L1450.0,401.03041655911784L1460.0,163.61012170995332L1470.0,-98.86569358699262L1480.0,-372.9453972323772L1490.0,-644.2062448272652L1500.0,-897.8733124598268L1510.0,-1119.7820080738775L1520.0,-1297.331017109852L1530.0,-1420.3394320769912L1540.0,-1481.7419462781236L1550.0,-1478.0698995806006L1560.0,-1409.6824677704644L1570.0,-1280.7312628434556L1580.0,-1098.861781960678L1590.0000000000002,-874.6749800671528L1600.0,-620.9902416241366L1610.0,-351.9659633754827L1620.0,-82.14563162988316L1630.0,174.4871549738166L1640.0000000000002,405.14475528451203L1650.0,398.3390614241523L1660.0,246.59467105977842L1670.0,141.91453525174813L1680.0,85.36372255125366L1690.0000000000002,74.57920553851307L1700.0,104.30655475063031L1710.0,166.9546713283387L1720.0,253.27952925727413L1730.0,353.1266313418404L1740.0000000000002,455.729258636498L1750.0,444.67381788545435L1760.0,361.89343061182126L1770.0,298.9249181175795L1780.0,260.07715099996244L1790.0000000000002,246.92091964133306L1800.0,258.63388853403126L1810.0,292.26010049811543L1820.0,343.102097494125L1830.0,405.19158063473776L1840.0000000000002,471.18303817496155L1850.0,460.56029729358374L1860.0,403.4447246680145L1870.0000000000002,358.3469786249791L1880.0,329.2083659143128L1890.0000000000002,317.9124179402637L1900.0,324.5590926080638L1910.0,347.57612547952306L1920.0000000000002,383.9405457204714L1930.0,429.4686258682141L1940.0000000000002,478.4161593403895" fill="none" stroke="rgb(255,0,0)" stroke-width="1"/>
     </g>
     <g transform="translate(0.0,0.0)">
          <text pointer-events="none" x="3" y="-3" transform="translate(50,80)" fill="rgb(255,0,0)">F(x) = FT(f(x))</text>
     </g>
     <g transform="translate(0.0,0.0)">
          <path d="M-50.0,474.39869759085127L-40.0,486.5813058076243L-30.000000000000114,497.974373065064L-19.999999999999886,504.9864290824545L-10.0,505.6472199765168L0.0,500.1116702132828L10.0,490.4635798608164L19.999999999999886,479.92260498045925L30.000000000000114,471.74713118805687L40.0,468.2087773152373L50.0,469.96812481442794L60.0,476.02714509774717L69.99999999999989,484.2288969170693L80.00000000000011,492.09172705164656L90.0,497.6654762729849L100.0,500.1116702132835L110.0,499.82788501644234L119.99999999999989,498.1118524877001L130.0000000000001,496.5282873436192L140.0,496.2408647288054L150.0,497.56964574374433L160.0,499.9347886893936L170.0,502.1903481473551L180.0000000000001,503.19752132800903L190.0,502.3931506022501L200.0,500.11167021328333L210.0,497.5159782036227L220.0,496.1482565857314L230.0000000000001,497.2666829868475L240.0,501.2288374862589L250.0,507.1794292005332L260.0,513.1966503658252L270.0,516.8833073366109L280.0000000000001,516.216452722935L290.0,510.3568340200728L300.0,500.11167021328345L310.0,487.84911779991626L320.0,476.84769537180216L330.0000000000001,470.26604176162346L340.0,470.06605721968026L350.0,476.26054620018203L360.0,486.76633937849795L370.0,497.95127044861204L380.0,505.73084994754606L390.0,506.87668673634414L400.0,500.11167021328276L410.0,486.6202031923734L420.0,469.78199789580583L430.0000000000001,454.18819026212645L440.00000000000006,444.2366742350905L450.0,442.7496304117892L460.00000000000006,450.05948418608523L470.0,463.8661060603281L480.00000000000006,479.92298824485954L490.00000000000006,493.3428794879323L500.0,500.11167021328345L510.00000000000006,498.32996921626716L520.0,488.7882268139146L530.0,474.69551988656326L540.0,460.6541146965077L550.0,451.2126292910002L560.0,449.4616354259887L570.0,456.1150645888106L580.0,469.35722557028555L590.0,485.4840248711822L600.0,500.111670213284L610.0,509.55035147292483L620.0,511.9000186738249L630.0,507.53041059815854L640.0,498.8195174694174L650.0,489.2706302208153L660.0,482.3255193953788L670.0,480.2760372140424L680.0,483.62408931951984L690.0,491.07293031193643L700.0,500.11167021328316L710.0,507.95681948034945L720.0,512.5064427919318L730.0,512.9778521021369L740.0,510.02874865813794L750.0,505.35507479525893L760.0,500.94619181566514L770.0000000000001,498.2930353910012L780.0,497.8486346173066L790.0,498.9344748773988L800.0,500.1116702132826L810.0,499.857962080398L820.0000000000001,497.2758118403708L830.0000000000001,492.54572336804546L840.0,486.9363785597584L850.0,482.3532855195642L860.0,480.58758830024317L870.0000000000001,482.5493794798499L880.0000000000001,487.7883140625253L890.0,494.5090156604726L900.0,500.11167021328345L910.0000000000001,502.09198787153L920.0000000000001,498.9907348497359L930.0000000000001,491.04582129834745L940.0,480.28718245062475L950.0,470.0000000000001L960.0000000000001,463.70287959807L970.0000000000001,463.96734940118756L980.0000000000001,471.4784206469086L990.0,484.6731222888367L1000.0,500.1116702132835L1010.0000000000001,513.4930446787611L1020.0000000000001,521.004711012881L1030.0,520.5716321098907L1040.0,512.5878588839064L1050.0,499.8725993820709L1060.0000000000002,486.8417982441347L1070.0,478.14433330528834L1080.0,477.1928830763803L1090.0,485.0617734683815L1100.0,500.11167021328316L1110.0000000000002,518.4692699615692L1120.0,535.2145875803905L1130.0,545.8995088660179L1140.0,547.9143480719606L1150.0,541.2693334123076L1160.0000000000002,528.5484068766242L1170.0,514.0603932171407L1180.0,502.46931419127935L1190.0,497.34761210547396L1200.0,500.11167021328214L1210.0,509.6655996698993L1220.0,522.8433334637125L1230.0,535.4801473371663L1240.0,543.7482887933514L1250.0,545.3202547889157L1260.0,539.9970759832696L1270.0,529.6286486148514L1280.0,517.3918181830288L1290.0,506.69837401619833L1300.0,500.1116702132831L1310.0,498.6255976662908L1320.0,501.51717514358126L1330.0,506.77769926270446L1340.0,511.93066366608844L1350.0,514.9248890057966L1360.0,514.7865687188039L1370.0,511.82063668811406L1380.0,507.3272716560912L1390.0,502.97784735315685L1400.0,500.1116702132833L1410.0,499.2300193448793L1420.0,499.8750570031793L1430.0,500.9240472178717L1440.0,501.1644078299094L1450.0,499.90486436688167L1460.0,497.36386327484803L1470.0,494.6637593857486L1480.0,493.4153078424226L1490.0,495.0427286809362L1500.0,500.1116702132839L1510.0,507.9363915345649L1520.0,516.6498365142152L1530.0,523.7521171108397L1540.0,526.9695509008163L1550.0,525.1258221066657L1560.0,518.700080349073L1570.0,509.83873929170227L1580.0,501.77056738449994L1590.0000000000002,497.78650344421146L1600.0,500.1116702132835L1610.0,509.05587323362255L1620.0,522.7547151107271L1630.0,537.6265367837357L1640.0000000000002,549.4312304190951L1650.0,554.6064125902142L1660.0,551.4481267715117L1670.0,540.7378142824484L1680.0,525.5875360190839L1690.0000000000002,510.52757617211915L1700.0,500.11167021328333L1710.0,497.4807630988287L1720.0,503.34922107997943L1730.0,515.7476280721091L1740.0000000000002,530.614648482006L1750.0,543.0557816892776L1760.0,548.8697382911283L1770.0,545.855601223948L1780.0,534.4850600434047L1790.0000000000002,517.7303358959584L1800.0,500.1116702132832L1810.0,486.27828011197107L1820.0,479.5816573058438L1830.0,481.09373929850653L1840.0000000000002,489.36921160787165L1850.0,501.00401180101653L1860.0,511.78422936879525L1870.0000000000002,518.0361727063706L1880.0,517.7379217069149L1890.0000000000002,511.04800031780053L1900.0,500.11167021328373L1910.0,488.24789267799906L1920.0000000000002,478.8178879770785L1930.0,474.16481369705684L1940.0000000000002,474.96796032088844" fill="none" stroke="rgb(0,0,255)" stroke-width="1"/>
     </g>
     <g transform="translate(0.0,0.0)">
          <text pointer-events="none" x="3" y="-3" transform="translate(50,110)" fill="rgb(0,0,255)">rf(x) = RFT(FT(x))</text>
     </g>
</svg>