<svg xmlns="http://www.w3.org/2000/svg" xmlns:xlink="http://www.w3.org/1999/xlink" font-size="10px" font-family="sans-serif" fill="none" stroke="none" stroke-width="1.5" width="1900.0" height="1000.0">
     <rect width="1900" height="1000" fill="rgb(255,255,255)"/>
     <g transform="translate(0.0,0.0)">
          <line shape-rendering="crispEdges" x1="0" y1="500" x2="1900" y2="500" stroke="rgb(0,0,0)" stroke-width="1"/>
     </g>
     <g transform="translate(0.0,0.0)">
          <line shape-rendering="crispEdges" x1="950" y1="0" x2="950" y2="1000" stroke="rgb(0,0,0)" stroke-width="1"/>
     </g>
     <g transform="translate(0.0,0.0)">
          <line shape-rendering="crispEdges" x1="945.0" y1="8300.0" x2="955.0" y2="8300.0" stroke="rgb(0,0,0)" stroke-width="1"/>
          <line shape-rendering="crispEdges" x1="945.0" y1="7910.0" x2="955.0" y2="7910.0" stroke="rgb(0,0,0)" stroke-width="1"/>
          <line shape-rendering="crispEdges" x1="945.0" y1="7520.0" x2="955.0" y2="7520.0" stroke="rgb(0,0,0)" stroke-width="1"/>
          <line shape-rendering="crispEdges" x1="945.0" y1="7130.0" x2="955.0" y2="7130.0" stroke="rgb(0,0,0)" stroke-width="1"/>
          <line shape-rendering="crispEdges" x1="945.0" y1="6740.0" x2="955.0" y2="6740.0" stroke="rgb(0,0,0)" stroke-width="1"/>
          <line shape-rendering="crispEdges" x1="945.0" y1="6350.0" x2="955.0" y2="6350.0" stroke="rgb(0,0,0)" stroke-width="1"/>
          <line shape-rendering="crispEdges" x1="945.0" y1="5960.0" x2="955.0" y2="5960.0" stroke="rgb(0,0,0)" stroke-width="1"/>
          <line shape-rendering="crispEdges" x1="945.0" y1="5570.0" x2="955.0" y2="5570.0" stroke="rgb(0,0,0)" stroke-width="1"/>
          <line shape-rendering="crispEdges" x1="945.0" y1="5180.0" x2="955.0" y2="5180.0" stroke="rgb(0,0,0)" stroke-width="1"/>
          <line shape-rendering="crispEdges" x1="945.0" y1="4790.0" x2="955.0" y2="4790.0" stroke="rgb(0,0,0)" stroke-width="1"/>
          <line shape-rendering="crispEdges" x1="945.0" y1="4400.0" x2="955.0" y2="4400.0" stroke="rgb(0,0,0)" stroke-width="1"/>
          <line shape-rendering="crispEdges" x1="945.0" y1="4010.0" x2="955.0" y2="4010.0" stroke="rgb(0,0,0)" stroke-width="1"/>
          <line shape-rendering="crispEdges" x1="945.0" y1="3620.0" x2="955.0" y2="3620.0" stroke="rgb(0,0,0)" stroke-width="1"/>
          <line shape-rendering="crispEdges" x1="945.0" y1="3230.0" x2="955.0" y2="3230.0" stroke="rgb(0,0,0)" stroke-width="1"/>
          <line shape-rendering="crispEdges" x1="945.0" y1="2840.0" x2="955.0" y2="2840.0" stroke="rgb(0,0,0)" stroke-width="1"/>
          <line shape-rendering="crispEdges" x1="945.0" y1="2450.0" x2="955.0" y2="2450.0" stroke="rgb(0,0,0)" stroke-width="1"/>
          <line shape-rendering="crispEdges" x1="945.0" y1="2060.0" x2="955.0" y2="2060.0" stroke="rgb(0,0,0)" stroke-width="1"/>
          <line shape-rendering="crispEdges" x1="945.0" y1="1670.0" x2="955.0" y2="1670.0" stroke="rgb(0,0,0)" stroke-width="1"/>
          <line shape-rendering="crispEdges" x1="945.0" y1="1280.0" x2="955.0" y2="1280.0" stroke="rgb(0,0,0)" stroke-width="1"/>
          <line shape-rendering="crispEdges" x1="945.0" y1="890.0" x2="955.0" y2="890.0" stroke="rgb(0,0,0)" stroke-width="1"/>
          <line shape-rendering="crispEdges" x1="945.0" y1="500.0" x2="955.0" y2="500.0" stroke="rgb(0,0,0)" stroke-width="1"/>
          <line shape-rendering="crispEdges" x1="945.0" y1="110.0" x2="955.0" y2="110.0" stroke="rgb(0,0,0)" stroke-width="1"/>
          <line shape-rendering="crispEdges" x1="945.0" y1="-280.0" x2="955.0" y2="-280.0" stroke="rgb(0,0,0)" stroke-width="1"/>
          <line shape-rendering="crispEdges" x1="945.0" y1="-670.0" x2="955.0" y2="-670.0" stroke="rgb(0,0,0)" stroke-width="1"/>
          <line shape-rendering="crispEdges" x1="945.0" y1="-1060.0" x2="955.0" y2="-1060.0" stroke="rgb(0,0,0)" stroke-width="1"/>
          <line shape-rendering="crispEdges" x1="945.0" y1="-1450.0" x2="955.0" y2="-1450.0" stroke="rgb(0,0,0)" stroke-width="1"/>
          <line shape-rendering="crispEdges" x1="945.0" y1="-1840.0" x2="955.0" y2="-1840.0" stroke="rgb(0,0,0)" stroke-width="1"/>
          <line shape-rendering="crispEdges" x1="945.0" y1="-2230.0" x2="955.0" y2="-2230.0" stroke="rgb(0,0,0)" stroke-width="1"/>
          <line shape-rendering="crispEdges" x1="945.0" y1="-2620.0" x2="955.0" y2="-2620.0" stroke="rgb(0,0,0)" stroke-width="1"/>
          <line shape-rendering="crispEdges" x1="945.0" y1="-3010.0" x2="955.0" y2="-3010.0" stroke="rgb(0,0,0)" stroke-width="1"/>
          <line shape-rendering="crispEdges" x1="945.0" y1="-3400.0" x2="955.0" y2="-3400.0" stroke="rgb(0,0,0)" stroke-width="1"/>
          <line shape-rendering="crispEdges" x1="945.0" y1="-3790.0" x2="955.0" y2="-3790.0" stroke="rgb(0,0,0)" stroke-width="1"/>
          <line shape-rendering="crispEdges" x1="945.0" y1="-4180.0" x2="955.0" y2="-4180.0" stroke="rgb(0,0,0)" stroke-width="1"/>
          <line shape-rendering="crispEdges" x1="945.0" y1="-4570.0" x2="955.0" y2="-4570.0" stroke="rgb(0,0,0)" stroke-width="1"/>
          <line shape-rendering="crispEdges" x1="945.0" y1="-4960.0" x2="955.0" y2="-4960.0" stroke="rgb(0,0,0)" stroke-width="1"/>
          <line shape-rendering="crispEdges" x1="945.0" y1="-5350.0" x2="955.0" y2="-5350.0" stroke="rgb(0,0,0)" stroke-width="1"/>
          <line shape-rendering="crispEdges" x1="945.0" y1="-5740.0" x2="955.0" y2="-5740.0" stroke="rgb(0,0,0)" stroke-width="1"/>
          <line shape-rendering="crispEdges" x1="945.0" y1="-6130.0" x2="955.0" y2="-6130.0" stroke="rgb(0,0,0)" stroke-width="1"/>
          <line shape-rendering="crispEdges" x1="945.0" y1="-6520.0" x2="955.0" y2="-6520.0" stroke="rgb(0,0,0)" stroke-width="1"/>
          <line shape-rendering="crispEdges" x1="945.0" y1="-6910.0" x2="955.0" y2="-6910.0" stroke="rgb(0,0,0)" stroke-width="1"/>
     </g>
     <g transform="translate(0.0,0.0)">
          <text pointer-events="none" x="3" y="-3" transform="translate(950,8300.0)" fill="rgb(0,0,0)">-200</text>
          <text pointer-events="none" x="3" y="-3" transform="translate(950,7910.0)" fill="rgb(0,0,0)">-190</text>
          <text pointer-events="none" x="3" y="-3" transform="translate(950,7520.0)" fill="rgb(0,0,0)">-180</text>
          <text pointer-events="none" x="3" y="-3" transform="translate(950,7130.0)" fill="rgb(0,0,0)">-170</text>
          <text pointer-events="none" x="3" y="-3" transform="translate(950,6740.0)" fill="rgb(0,0,0)">-160</text>
          <text pointer-events="none" x="3" y="-3" transform="translate(950,6350.0)" fill="rgb(0,0,0)">-150</text>
          <text pointer-events="none" x="3" y="-3" transform="translate(950,5960.0)" fill="rgb(0,0,0)">-140</text>
          <text pointer-events="none" x="3" y="-3" transform="translate(950,5570.0)" fill="rgb(0,0,0)">-130</text>
          <text pointer-events="none" x="3" y="-3" transform="translate(950,5180.0)" fill="rgb(0,0,0)">-120</text>
          <text pointer-events="none" x="3" y="-3" transform="translate(950,4790.0)" fill="rgb(0,0,0)">-110</text>
          <text pointer-events="none" x="3" y="-3" transform="translate(950,4400.0)" fill="rgb(0,0,0)">-100</text>
          <text pointer-events="none" x="3" y="-3" transform="translate(950,4010.0)" fill="rgb(0,0,0)">-90</text>
          <text pointer-events="none" x="3" y="-3" transform="translate(950,3620.0)" fill="rgb(0,0,0)">-80</text>
          <text pointer-events="none" x="3" y="-3" transform="translate(950,3230.0)" fill="rgb(0,0,0)">-70</text>
          <text pointer-events="none" x="3" y="-3" transform="translate(950,2840.0)" fill="rgb(0,0,0)">-60</text>
          <text pointer-events="none" x="3" y="-3" transform="translate(950,2450.0)" fill="rgb(0,0,0)">-50</text>
          <text pointer-events="none" x="3" y="-3" transform="translate(950,2060.0)" fill="rgb(0,0,0)">-40</text>
          <text pointer-events="none" x="3" y="-3" transform="translate(950,1670.0)" fill="rgb(0,0,0)">-30</text>
          <text pointer-events="none" x="3" y="-3" transform="translate(950,1280.0)" fill="rgb(0,0,0)">-20</text>
          <text pointer-events="none" x="3" y="-3" transform="translate(950,890.0)" fill="rgb(0,0,0)">-10</text>
          <text pointer-events="none" x="3" y="-3" transform="translate(950,500.0)" fill="rgb(0,0,0)">0</text>
          <text pointer-events="none" x="3" y="-3" transform="translate(950,110.0)" fill="rgb(0,0,0)">10</text>
          <text pointer-events="none" x="3" y="-3" transform="translate(950,-280.0)" fill="rgb(0,0,0)">20</text>
          <text pointer-events="none" x="3" y="-3" transform="translate(950,-670.0)" fill="rgb(0,0,0)">30</text>
          <text pointer-events="none" x="3" y="-3" transform="translate(950,-1060.0)" fill="rgb(0,0,0)">40</text>
          <text pointer-events="none" x="3" y="-3" transform="translate(950,-1450.0)" fill="rgb(0,0,0)">50</text>
          <text pointer-events="none" x="3" y="-3" transform="translate(950,-1840.0)" fill="rgb(0,0,0)">60</text>
          <text pointer-events="none" x="3" y="-3" transform="translate(950,-2230.0)" fill="rgb(0,0,0)">70</text>
          <text pointer-events="none" x="3" y="-3" transform="translate(950,-2620.0)" fill="rgb(0,0,0)">80</text>
          <text pointer-events="none" x="3" y="-3" transform="translate(950,-3010.0)" fill="rgb(0,0,0)">90</text>
          <text pointer-events="none" x="3" y="-3" transform="translate(950,-3400.0)" fill="rgb(0,0,0)">100</text>
          <text pointer-events="none" x="3" y="-3" transform="translate(950,-3790.0)" fill="rgb(0,0,0)">110</text>
          <text pointer-events="none" x="3" y="-3" transform="translate(950,-4180.0)" fill="rgb(0,0,0)">120</text>
          <text pointer-events="none" x="3" y="-3" transform="translate(950,-4570.0)" fill="rgb(0,0,0)">130</text>
          <text pointer-events="none" x="3" y="-3" transform="translate(950,-4960.0)" fill="rgb(0,0,0)">140</text>
          <text pointer-events="none" x="3" y="-3" transform="translate(950,-5350.0)" fill="rgb(0,0,0)">150</text>
          <text pointer-events="none" x="3" y="-3" transform="translate(950,-5740.0)" fill="rgb(0,0,0)">160</text>
          <text pointer-events="none" x="3" y="-3" transform="translate(950,-6130.0)" fill="rgb(0,0,0)">170</text>
          <text pointer-events="none" x="3" y="-3" transform="translate(950,-6520.0)" fill="rgb(0,0,0)">180</text>
          <text pointer-events="none" x="3" y="-3" transform="translate(950,-6910.0)" fill="rgb(0,0,0)">190</text>
     </g>
     <g transform="translate(0.0,0.0)">
          <line shape-rendering="crispEdges" x1="50.0" y1="495.0" x2="50.0" y2="505.0" stroke="rgb(0,0,0)" stroke-width="1"/>
          <line shape-rendering="crispEdges" x1="140.0" y1="495.0" x2="140.0" y2="505.0" stroke="rgb(0,0,0)" stroke-width="1"/>
          <line shape-rendering="crispEdges" x1="230.0" y1="495.0" x2="230.0" y2="505.0" stroke="rgb(0,0,0)" stroke-width="1"/>
          <line shape-rendering="crispEdges" x1="320.0" y1="495.0" x2="320.0" y2="505.0" stroke="rgb(0,0,0)" stroke-width="1"/>
          <line shape-rendering="crispEdges" x1="410.0" y1="495.0" x2="410.0" y2="505.0" stroke="rgb(0,0,0)" stroke-width="1"/>
          <line shape-rendering="crispEdges" x1="500.0" y1="495.0" x2="500.0" y2="505.0" stroke="rgb(0,0,0)" stroke-width="1"/>
          <line shape-rendering="crispEdges" x1="590.0" y1="495.0" x2="590.0" y2="505.0" stroke="rgb(0,0,0)" stroke-width="1"/>
          <line shape-rendering="crispEdges" x1="680.0" y1="495.0" x2="680.0" y2="505.0" stroke="rgb(0,0,0)" stroke-width="1"/>
          <line shape-rendering="crispEdges" x1="770.0" y1="495.0" x2="770.0" y2="505.0" stroke="rgb(0,0,0)" stroke-width="1"/>
          <line shape-rendering="crispEdges" x1="860.0" y1="495.0" x2="860.0" y2="505.0" stroke="rgb(0,0,0)" stroke-width="1"/>
          <line shape-rendering="crispEdges" x1="950.0" y1="495.0" x2="950.0" y2="505.0" stroke="rgb(0,0,0)" stroke-width="1"/>
          <line shape-rendering="crispEdges" x1="1040.0" y1="495.0" x2="1040.0" y2="505.0" stroke="rgb(0,0,0)" stroke-width="1"/>
          <line shape-rendering="crispEdges" x1="1130.0" y1="495.0" x2="1130.0" y2="505.0" stroke="rgb(0,0,0)" stroke-width="1"/>
          <line shape-rendering="crispEdges" x1="1220.0" y1="495.0" x2="1220.0" y2="505.0" stroke="rgb(0,0,0)" stroke-width="1"/>
          <line shape-rendering="crispEdges" x1="1310.0" y1="495.0" x2="1310.0" y2="505.0" stroke="rgb(0,0,0)" stroke-width="1"/>
          <line shape-rendering="crispEdges" x1="1400.0" y1="495.0" x2="1400.0" y2="505.0" stroke="rgb(0,0,0)" stroke-width="1"/>
          <line shape-rendering="crispEdges" x1="1490.0" y1="495.0" x2="1490.0" y2="505.0" stroke="rgb(0,0,0)" stroke-width="1"/>
          <line shape-rendering="crispEdges" x1="1580.0" y1="495.0" x2="1580.0" y2="505.0" stroke="rgb(0,0,0)" stroke-width="1"/>
          <line shape-rendering="crispEdges" x1="1670.0" y1="495.0" x2="1670.0" y2="505.0" stroke="rgb(0,0,0)" stroke-width="1"/>
          <line shape-rendering="crispEdges" x1="1760.0" y1="495.0" x2="1760.0" y2="505.0" stroke="rgb(0,0,0)" stroke-width="1"/>
     </g>
     <g transform="translate(0.0,0.0)">
          <text pointer-events="none" y="3" dy=".71em" transform="translate(50.0,505.0)" fill="rgb(0,0,0)" text-anchor="middle">-10</text>
          <text pointer-events="none" y="3" dy=".71em" transform="translate(140.0,505.0)" fill="rgb(0,0,0)" text-anchor="middle">-9</text>
          <text pointer-events="none" y="3" dy=".71em" transform="translate(230.0,505.0)" fill="rgb(0,0,0)" text-anchor="middle">-8</text>
          <text pointer-events="none" y="3" dy=".71em" transform="translate(320.0,505.0)" fill="rgb(0,0,0)" text-anchor="middle">-7</text>
          <text pointer-events="none" y="3" dy=".71em" transform="translate(410.0,505.0)" fill="rgb(0,0,0)" text-anchor="middle">-6</text>
          <text pointer-events="none" y="3" dy=".71em" transform="translate(500.0,505.0)" fill="rgb(0,0,0)" text-anchor="middle">-5</text>
          <text pointer-events="none" y="3" dy=".71em" transform="translate(590.0,505.0)" fill="rgb(0,0,0)" text-anchor="middle">-4</text>
          <text pointer-events="none" y="3" dy=".71em" transform="translate(680.0,505.0)" fill="rgb(0,0,0)" text-anchor="middle">-3</text>
          <text pointer-events="none" y="3" dy=".71em" transform="translate(770.0,505.0)" fill="rgb(0,0,0)" text-anchor="middle">-2</text>
          <text pointer-events="none" y="3" dy=".71em" transform="translate(860.0,505.0)" fill="rgb(0,0,0)" text-anchor="middle">-1</text>
          <text pointer-events="none" y="3" dy=".71em" transform="translate(950.0,505.0)" fill="rgb(0,0,0)" text-anchor="middle">0</text>
          <text pointer-events="none" y="3" dy=".71em" transform="translate(1040.0,505.0)" fill="rgb(0,0,0)" text-anchor="middle">1</text>
          <text pointer-events="none" y="3" dy=".71em" transform="translate(1130.0,505.0)" fill="rgb(0,0,0)" text-anchor="middle">2</text>
          <text pointer-events="none" y="3" dy=".71em" transform="translate(1220.0,505.0)" fill="rgb(0,0,0)" text-anchor="middle">3</text>
          <text pointer-events="none" y="3" dy=".71em" transform="translate(1310.0,505.0)" fill="rgb(0,0,0)" text-anchor="middle">4</text>
          <text pointer-events="none" y="3" dy=".71em" transform="translate(1400.0,505.0)" fill="rgb(0,0,0)" text-anchor="middle">5</text>
          <text pointer-events="none" y="3" dy=".71em" transform="translate(1490.0,505.0)" fill="rgb(0,0,0)" text-anchor="middle">6</text>
          <text pointer-events="none" y="3" dy=".71em" transform="translate(1580.0,505.0)" fill="rgb(0,0,0)" text-anchor="middle">7</text>
          <text pointer-events="none" y="3" dy=".71em" transform="translate(1670.0,505.0)" fill="rgb(0,0,0)" text-anchor="middle">8</text>
          <text pointer-events="none" y="3" dy=".71em" transform="translate(1760.0,505.0)" fill="rgb(0,0,0)" text-anchor="middle">9</text>
     </g>
     <g transform="translate(0.0,0.0)">
          <path d="M50.0,450.47871066582115L53.515625,462.13129040362674L57.03125,475.27276614279515L60.546875,489.25166785000476L64.0625,503.39030546448964L67.578125,517.0185291442679L71.09375,529.5064583496002L74.609375,540.2945389929471L78.125,548.919451859211L81.640625,555.0346338859949L85.15625,558.4244732174218L88.671875,559.011582658834L92.1875,556.856925552919L95.703125,552.1529433172577L99.21875,545.2101950054943L102.734375,536.4383473524008L106.25,526.3226319105279L109.765625,515.3971000437552L113.28125,504.21614628224495L116.796875,493.32582956747365L120.3125,483.23649835381786L123.828125,474.3981219891905L127.34375,467.1795541596092L130.859375,461.8527151996532L134.375,458.58239272195954L137.890625,457.4220407156282L141.40625,458.31562392509227L144.921875,461.1052253778016L148.4375,465.5438283063287L151.953125,471.3124158509497L155.46875,478.0403169057141L158.984375,485.3275752406463L162.5,492.7680388654301L166.015625,499.9718607207894L169.53125,506.5861692402365L173.046875,512.3128030872932L176.5625,516.9221996609648L180.078125,520.2627697751427L183.59375,522.2653667427703L187.109375,522.9427507477402L190.625,522.3842419359565L194.140625,520.7460313868214L197.65625,518.2378624796468L201.171875,515.1069926141929L204.6875,511.6204860232544L208.203125,508.0469651317297L211.71875,504.63895692895983L215.234375,501.6169124196005L218.75,499.155855579924L222.265625,497.37544116909964L225.78125,496.33397917741627L229.296875,496.02673108838945L232.8125,496.388514659628L236.328125,497.30038559502583L239.84375,498.5999122058448L243.359375,500.0943378511001L246.875,501.57574865413466L250.390625,502.83724114414866L253.90625,503.6890232880158L257.421875,503.9733864519582L260.9375,503.57755492535097L264.453125,502.4435496923999L267.96875,500.5743865080168L271.484375,498.0361542304663L275.0,494.9557744652364L278.515625,491.5145127985727L282.03125,487.9375792661625L285.546875,484.4804052595201L289.0625,481.412400815717L292.578125,478.99916698233596L296.09375,477.4842521086059L299.609375,477.071591114634L303.125,477.90974932784127L306.640625,480.0790075479465L310.15625,483.5821767302773L313.671875,488.3398268998677L317.1875,494.1903667622782L320.703125,500.89513178773944L324.21875,508.14834506343635L327.734375,515.5915237281707L331.25,522.8316312145787L334.765625,529.4620378537006L338.28125,535.0851638900266L341.796875,539.3355512485857L345.3125,541.9020518302618L348.828125,542.5478352251689L352.34375,541.1270079624863L355.859375,537.5967960205851L359.375,532.0244645526814L362.890625,524.5884222635464L366.40625,515.5732681913776L369.921875,505.35886912898L373.4375,494.4038885176845L376.953125,483.22450394380087L380.46875,472.36933257506246L383.984375,462.3918158352193L387.5,453.8214827091607L391.015625,447.13560499822074L394.53125,442.7327712296079L398.046875,440.90983670942626L401.5625,441.8435578227246L405.078125,445.5779959555506L408.59375,452.0184912516037L412.109375,460.93267325955003L415.625,471.95861160162485L419.140625,484.6198342064216L422.65625,498.3465733720734L426.171875,512.5022607297285L429.6875,526.4139995576309L433.203125,539.4055130670353L436.71875,550.8309132792604L440.234375,560.1075660671446L443.75,566.7463485388123L447.265625,570.377705166106L450.78125,570.7721041078346L454.296875,567.8537657024965L457.8125,561.7068676705403L461.328125,552.5738093305736L464.84375,540.8455207190445L468.359375,527.0442110053284L471.875,511.7993426839199L475.390625,495.81797307406356L478.90625,479.8509038348633L482.421875,464.6563064868815L485.9375,450.96263496519157L489.453125,439.4326870016738L492.96875,430.63063142153567L496.484375,424.9936799970369L500.0,422.8098569977029L503.515625,424.2030182592599L507.03125,429.1259097183612L510.546875,437.36165140130254L514.0625,448.5336075456819L517.578125,462.123178784399L521.09375,477.4946500714742L524.609375,493.92586909787354L528.125,510.6432329373076L531.640625,526.8592409881685L535.15625,541.8107413455962L538.671875,554.7959623493152L542.1875,565.208483047272L545.703125,572.5664524708889L549.21875,576.5356098231416L552.734375,576.9449733606696L556.25,573.7944385298053L559.765625,567.2539364785625L563.28125,557.6542311733881L566.796875,545.4698549536281L570.3125,531.2950767583816L573.828125,515.8141442425159L577.34375,499.76732288059014L580.859375,483.914457713184L584.375,468.99789658063673L587.890625,455.70663217210324L591.40625,444.6434436072782L594.921875,436.2966511321714L598.4375,431.01784910666606L601.953125,429.00666622693734L605.46875,430.30323474662987L608.984375,434.7886517653103L612.5,442.19330637362134L616.015625,452.11254790686905L619.53125,464.0288033541999L623.046875,477.3389348771244L626.5625,491.3853773959289L630.078125,505.48942367875213L633.59375,518.9849384500292L637.109375,531.2507872225458L640.625,541.7403585702239L644.140625,550.0067344465414L647.65625,555.7223116537576L651.171875,558.6919846922267L654.6875,558.8593490322198L658.203125,556.30575540329L661.71875,551.2424200554326L665.234375,543.9961532713244L668.75,534.989590011967L672.265625,524.7170759138626L675.78125,513.7175653868237L679.296875,502.546016452759L682.8125,491.74481357359554L686.328125,481.81671384576225L689.84375,473.20069685659905L693.359375,466.2519117060431L696.875,461.2266674742765L700.390625,458.27312016271117L703.90625,457.42798655148613L707.421875,458.61928156266765L710.9375,461.6747490133654L714.453125,466.33535385014295L717.96875,472.2729432154192L721.484375,479.11097765615966L725.0,486.44709287816295L728.515625,493.8761833549767L732.03125,501.0127044181943L735.546875,507.5109676075286L739.0625,513.0823494244594L742.578125,517.508536908656L746.09375,520.6501822147341L749.609375,522.4506177872424L753.125,522.9345774559761L756.640625,522.2021598420345L760.15625,520.4185422776205L763.671875,517.8001906932095L767.1875,514.5985004555555L770.703125,511.0819346642971L774.21875,507.5177930822535L777.734375,504.15474362859027L781.25,501.2071800884001L784.765625,498.8423391308946L788.28125,497.1709251880194L791.796875,496.2417645966068L795.3125,496.04075441450965L798.828125,496.4941018387443L802.34375,497.4755832344551L805.859375,498.8173032512923L809.375,500.32321904122955L812.890625,501.7845248960623L816.40625,502.99587867631095L819.921875,503.7713999012561L823.4375,503.9593833366061L826.953125,503.4547505318136L830.46875,502.2084004059799L833.984375,500.2328105095833L837.5,497.6034717834593L841.015625,494.4559978592409L844.53125,490.9790199212167L848.046875,487.4032438436136L851.5625,483.9872918610789L855.078125,481.0011616398275L858.59375,478.7082984534816L862.109375,477.3473810891602L865.625,477.1149622726887L869.140625,478.1500766787444L872.65625,480.5218347756487L876.171875,484.2208635442687L879.6875,489.15524387214793L883.203125,495.1513407419711L886.71875,501.95964037592887L890.234375,509.2654142303L893.75,516.7037400272343L897.265625,523.8781416846945L900.78125,530.3818788768713L904.296875,535.8207369285587L907.8125,539.8360499984744L911.328125,542.1266428347996L914.84375,542.4684027256659L918.359375,540.730293424719L921.875,536.8857924494475L925.390625,531.0189639011886L928.90625,523.3246589645224L932.421875,514.102650705778L935.9375,503.7458417630899L939.453125,492.7230148401363L942.96875,481.5569081909613L946.484375,470.79867391122787L950.0,461.0L953.515625,452.68433465953L957.03125,446.31873341460994L960.546875,442.28785061202643L964.0625,440.8715153187559L967.578125,442.2271706754648L971.09375,446.37822284889023L974.609375,453.20905234285476L978.125,462.4671014838915L981.640625,473.7720849631221L985.15625,486.6319946949967L988.671875,500.46520595747177L992.1875,514.6276584524988L995.703125,528.4438017855257L999.21875,541.2397756975348L1002.734375,552.3771536837335L1006.25,561.2855228891372L1009.765625,567.492207379347L1013.28125,570.6475652931963L1016.796875,570.5444974916043L1020.3125,567.1310861268134L1023.828125,560.5156220712335L1027.34375,550.9636630822051L1030.859375,538.8871702630566L1034.375,524.8261777726287L1037.890625,509.4238385385389L1041.40625,493.39603651744017L1044.921875,477.4970453493197L1048.4375,462.48292854980434L1051.953125,449.0745059357092L1055.46875,437.92174747041963L1058.984375,429.5713966660553L1062.5,424.43947359502977L1066.015625,422.7900698286302L1069.53125,424.7215361281294L1073.046875,430.160794259364L1076.5625,438.86609576394176L1080.078125,450.438123881043L1083.59375,464.3389120618401L1087.109375,479.91765549796435L1090.625,496.44214134974544L1094.140625,513.1342370921053L1097.65625,529.207669452057L1101.171875,543.9062095388363L1104.6875,556.5403590378771L1108.203125,566.5207088303328L1111.71875,573.3863111361879L1115.234375,576.8266604444838L1118.75,576.6962038942785L1122.265625,573.0206815270976L1125.78125,565.9950112731677L1129.296875,555.972861226254L1132.8125,543.4484706363794L1136.328125,529.0316695581637L1139.84375,513.4173853347984L1143.359375,497.351194858385L1146.875,481.5926711886543L1150.390625,466.8783722748826L1153.90625,453.88632360325767L1157.421875,443.2037559501606L1160.9375,435.2996793576382L1164.453125,430.5036148855751L1167.96875,428.9914806429597L1171.484375,430.7792553888812L1175.0,435.7246413459078L1178.515625,443.5365388479422L1182.03125,453.7917503377861L1185.546875,465.95797042247875L1189.0625,479.42181060434496L1192.578125,493.5203674240815L1196.09375,507.5746828492282L1199.609375,520.9233732733117L1203.125,532.9547212415725L1206.640625,543.1356299923066L1210.15625,551.036028470482L1213.671875,556.3475727667897L1217.1875,558.8958044745998L1220.703125,558.6452799389272L1224.21875,555.6975576302855L1227.734375,550.282303924193L1231.25,542.7421306700771L1234.765625,533.5120926651899L1238.28125,523.0950333655966L1241.796875,512.0341598470825L1245.3125,500.8843439438762L1248.828125,490.18368065748336L1252.34375,480.42678682302517L1255.859375,472.04119657100034L1259.375,465.3680134325258L1262.890625,460.6477238012012L1266.40625,458.011777686707L1269.921875,457.4802172408398L1273.4375,458.9652995858645L1276.953125,462.28073641221215L1280.46875,467.15587621660507L1283.984375,473.25390174017207L1287.5,480.1929183455411L1291.015625,487.56867864008507L1294.53125,494.97763069026286L1298.046875,502.0389936505988L1301.5625,508.4146533497844L1305.078125,513.825825133102L1308.59375,518.0656422408377L1312.109375,521.0070823690769L1315.625,522.6059277027498L1319.140625,522.898748121366L1322.65625,521.9961864885341L1326.171875,520.0720924836396L1329.6875,517.3492822828273L1333.203125,514.0828827775797L1336.71875,510.54234113326805L1340.234375,506.99323703874506L1343.75,503.6800235140329L1347.265625,500.81074410134397L1350.78125,498.5446349693141L1354.296875,496.9833287155525L1357.8125,496.1661442358776L1361.328125,496.06968799751746L1364.84375,496.6117219259063L1368.359375,497.6589879684841L1371.875,499.0384349434049L1375.390625,500.5510839518648L1378.90625,501.98760676175L1382.421875,503.1445866776682L1385.9375,503.8403896606471L1389.453125,503.9295973014406L1392.96875,503.3150412847019L1396.484375,501.9566260362949L1400.0,499.87632367694613L1403.515625,497.1589615874119L1407.03125,493.9486838865878L1410.546875,490.44123848680306L1414.0625,486.87250505066925L1417.578125,483.5039203680668L1421.09375,480.60566185610185L1424.609375,478.4386045810595L1428.125,477.23616272967115L1431.640625,477.18715651149125L1435.15625,478.42080750886373L1438.671875,480.99486089332004L1442.1875,484.8876669685445L1445.703125,489.9948360640811L1449.21875,496.1308219086412L1452.734375,503.03550374921133L1456.25,510.3855428130838L1459.765625,517.810001158417L1463.28125,524.9094472556562L1466.796875,531.2775483714526L1470.3125,536.5239785300519L1473.828125,540.297363214067L1477.34375,542.3069452780545L1480.859375,542.3416941092796L1484.375,540.2856910572674L1487.890625,536.1288035941718L1491.40625,529.9718996690325L1494.921875,522.02613991971L1498.4375,512.606203626496L1501.953125,502.11763734377683L1505.46875,491.0388447680089L1508.984375,479.8985442541425L1512.5,469.2497890808047L1516.015625,459.64185960191196L1519.53125,451.5914831132659L1523.046875,445.5549074328435L1526.5625,441.90234273555427L1530.078125,440.8961923843226L1533.59375,442.67432113097925L1537.109375,447.23936622388374L1540.625,454.45479569290785L1544.140625,464.0480737508241L1547.65625,475.6209237457997L1551.171875,488.6663039003567L1554.6875,502.59135020347827L1558.203125,516.7452137816199L1561.71875,530.4504447726842L1565.234375,543.0363665098068L1568.75,553.8727546179989L1572.265625,562.4020932759274L1575.78125,568.1687286895803L1579.296875,570.8433762918655L1582.8125,570.2416571224937L1586.328125,566.3356296194971L1589.84375,559.2576311255186L1593.359375,549.2961310745429L1596.875,536.8837051294353L1600.390625,522.5776453376538L1603.90625,507.0341044245282L1607.421875,490.97701245089524L1610.9375,475.16328313882707L1614.453125,460.3460302131241L1617.96875,447.2376300085133L1621.484375,436.47448874590987L1625.0,428.5852995515752L1628.515625,423.96440873416145L1632.03125,422.85166113872833L1635.546875,425.3197730886849L1639.0625,431.26990482183555L1642.578125,440.4356916870112L1646.09375,452.39556589853737L1649.609375,466.59278038805735L1653.125,482.36215496925286L1656.640625,498.96222290426005L1660.15625,515.6111807708672L1663.671875,531.524850559851L1667.1875,545.9547602561878L1670.703125,558.2244431110805L1674.21875,567.7621467079775L1677.734375,574.1283260422074L1681.25,577.0365606594543L1684.765625,576.3668706347785L1688.28125,572.170792462221L1691.796875,564.6679937586921L1695.3125,554.2346334623876L1698.828125,541.3840898608878L1702.34375,526.7410609468745L1705.859375,511.0103707104994L1709.375,494.9420743068626L1712.890625,479.2946315511474L1716.40625,464.7980032243571L1719.921875,452.1185143529291L1723.4375,441.827224072959L1726.953125,434.3733489230283L1730.46875,430.0640160082462L1733.984375,429.0512890025832L1737.5,431.327031160669L1741.015625,436.72576538854L1744.53125,444.9352831447352L1748.046875,455.5143627305745L1751.5625,467.91660353738723L1755.078125,481.5190840837545L1758.59375,495.6543231753723L1762.109375,509.6438764073972L1765.625,522.831841274309L1769.140625,534.6165754205667L1772.65625,544.4790513479229L1776.171875,552.0064698956346L1779.6875,556.9100225731063L1783.203125,559.0360143856333L1786.71875,558.3699165082464L1790.234375,555.0332926731387L1793.75,549.2739144240254L1797.265625,541.4497288527905L1800.78125,532.0076499274597L1804.296875,521.458395321638L1807.8125,510.3487722763687L1811.328125,499.2329198509845L1814.84375,488.64403662878414L1818.359375,479.0680626936569L1821.875,470.92064706123097L1825.390625,464.528525428703L1828.90625,460.1161703969856L1832.421875,457.7982724018882L1835.9375,457.57828167985576L1839.453125,459.35290796416393L1842.96875,462.9221535864614L1846.484375,468.00416461912516" fill="none" stroke="rgb(0,0,0)" stroke-width="1"/>
     </g>
     <g transform="translate(0.0,0.0)">
          <text pointer-events="none" x="3" y="-3" transform="translate(50,50)" fill="rgb(0,0,0)">f(x) = cos(5x) + sin(6x)</text>
     </g>
     <g transform="translate(0.0,0.0)">
          <path d="M50.0,407.43889769118175L53.515625,406.8697774557502L57.03125,405.1420999259103L60.546875,402.1922602839776L64.0625,397.9048659675477L67.578125,392.096554484718L71.09375,384.48818369331036L74.609375,374.65745174841425L78.125,361.9556526763315L81.640625,345.35323505299937L85.15625,323.1309507915025L88.671875,292.19754455811517L92.1875,246.36417958080096L95.703125,171.04626045588384L99.21875,21.14074476065298L102.734375,-448.6971011673436L106.25,-9357.360606248723L109.765625,-372.0804389360237L113.28125,-439.7604531843508L116.796875,-9303.573085398411L120.3125,-615.7748908545041L123.828125,-54.799425624547894L127.34375,121.08434712150768L130.859375,208.3299026108275L134.375,261.01000559241515L137.890625,296.518681671615L141.40625,322.19587515828687L144.921875,341.6919079306788L148.4375,357.0352372828513L151.953125,369.44711988467975L155.46875,379.70877645510984L158.984375,388.34423004571534L162.5,395.71865694066355L166.015625,402.0946472605549L169.53125,407.6660457539274L173.046875,412.5791756207859L176.5625,416.9466278796026L180.078125,420.8564955910024L183.59375,424.37872180966485L187.109375,427.56956454981105L190.625,430.4748014424491L194.140625,433.1320715301372L197.65625,435.5726142674025L201.171875,437.82257972301045L204.6875,439.9040287381225L208.203125,441.83570556616917L211.71875,443.63364128901674L215.234375,445.31162980725026L218.75,446.8816067861492L222.265625,448.3539539202395L225.78125,449.7377451689364L229.296875,451.04094749692115L232.8125,452.2705856482479L236.328125,453.4328782645847L239.84375,454.53335100724394L243.359375,455.5769310970902L246.875,456.56802674447533L250.390625,457.5105942170794L253.90625,458.40819473744034L257.421875,459.26404296728424L260.9375,460.08104849810127L264.453125,460.8618514985104L267.96875,461.6088534586671L271.484375,462.3242438016914L275.0,463.0100229980751L278.515625,463.6680227077212L282.03125,464.2999233880621L285.546875,464.9072697327159L289.0625,465.4914842471875L292.578125,466.05387921920817L296.09375,466.59566730159156L299.609375,467.11797089201355L303.125,467.621830466756L306.640625,468.10821200253736L310.15625,468.5780136009439L313.671875,469.0320714140154L317.1875,469.4711649557868L320.703125,469.89602187305945L324.21875,470.30732223858513L327.734375,470.7057024219989L331.25,471.0917585861049L334.765625,471.46604985046736L338.28125,471.82910115863615L341.796875,472.18140588129256L345.3125,472.5234281830611L348.828125,472.8556051780296L352.34375,473.1783488955384L355.859375,473.4920480757579L359.375,473.7970698117148L362.890625,474.09376105350077L366.40625,474.382449987413L369.921875,474.6634473024724L373.4375,474.9370473549659L376.953125,475.2035292400892L380.46875,475.4631577798332L383.984375,475.7161844342745L387.5,475.9628481433265L391.015625,476.20337610510853L394.53125,476.4379844962732L398.046875,476.66687913972646L401.5625,476.8902561236064L405.078125,477.10830237602966L408.59375,477.32119619961964L412.109375,477.5291077678419L415.625,477.7321995878999L419.140625,477.9306269316645L422.65625,478.1245382375597L426.171875,478.31407548583115L429.6875,478.4993745489668L433.203125,478.68056551934967L436.71875,478.85777301588837L440.234375,479.0311164709583L443.75,479.2007103995477L447.265625,479.36666465125836L450.78125,479.5290846473081L454.296875,479.6880716023637L457.8125,479.8437227340331L461.328125,479.9961314584092L464.84375,480.1453875757286L468.359375,480.29157744378426L471.875,480.4347841422051L475.390625,480.57508762664827L478.90625,480.7125648748812L482.421875,480.8472900242285L485.9375,480.97933450145877L489.453125,481.1087671456538L492.96875,481.2356543241858L496.484375,481.3600600425799L500.0,481.4820460484118L503.515625,481.60167192971244L507.03125,481.7189952081709L510.546875,481.8340714275937L514.0625,481.9469542375914L517.578125,482.0576954732428L521.09375,482.16634523036805L524.609375,482.27295193754696L528.125,482.3775624239802L531.640625,482.4802219842711L535.15625,482.5809744401844L538.671875,482.6798621988489L542.1875,482.7769263091541L545.703125,482.8722065141468L549.21875,482.96574130219415L552.734375,483.05756795476566L556.25,483.14772259261474L559.765625,483.2362402196038L563.28125,483.3231547644318L566.796875,483.4084991205989L570.3125,483.49230518452464L573.828125,483.57460389188304L577.34375,483.65542525241324L580.859375,483.73479838322305L584.375,483.81275154047955L587.890625,483.88931214983074L591.40625,483.96450683553167L594.921875,484.03836144817785L598.4375,484.1109010914819L601.953125,484.1821501476097L605.46875,484.2521323020144L608.984375,484.3208705662447L612.5,484.3883873009439L616.015625,484.45470423712686L619.53125,484.5198424968718L623.046875,484.5838226131699L626.5625,484.6466645488341L630.078125,484.70838771484284L633.59375,484.76901098782116L637.109375,484.82855272683173L640.625,484.8870307895378L644.140625,484.94446254783077L647.65625,485.00086490253705L651.171875,485.05625429802467L654.6875,485.11064673573446L658.203125,485.16405778760895L661.71875,485.2165026088518L665.234375,485.26799595011937L668.75,485.31855216932286L672.265625,485.36818524309615L675.78125,485.4169087776537L679.296875,485.4647360192498L682.8125,485.5116798646684L686.328125,485.5577528705668L689.84375,485.60296726312606L693.359375,485.6473349470866L696.875,485.6908675145153L700.390625,485.7335762531443L703.90625,485.7754721546604L707.421875,485.8165659223124L710.9375,485.8568679786217L714.453125,485.8963884727292L717.96875,485.93513728713526L721.484375,485.97312404482943L725.0,486.01035811558563L728.515625,486.0468486223093L732.03125,486.0826044473083L735.546875,486.11763423776233L739.0625,486.1519464117322L742.578125,486.1855491637699L746.09375,486.2184504697377L749.609375,486.2506580921031L753.125,486.28217958497544L756.640625,486.31302229873916L760.15625,486.3431933847148L763.671875,486.37269979943017L767.1875,486.4015483089536L770.703125,486.4297454932065L774.21875,486.4572977496265L777.734375,486.4842112972675L781.25,486.51049218030823L784.765625,486.5361462717801L788.28125,486.5611792769282L791.796875,486.585596736542L795.3125,486.6094040302112L798.828125,486.63260637938265L802.34375,486.65520885040075L805.859375,486.67721635729515L809.375,486.69863366473965L812.890625,486.71946539039527L816.40625,486.73971600787024L819.921875,486.75938984892207L823.4375,486.7784911060286L826.953125,486.79702383445704L830.46875,486.8149919550933L833.984375,486.8323992554406L837.5,486.84924939278335L841.015625,486.86554589564764L844.53125,486.8812921656656L848.046875,486.8964914795382L851.5625,486.91114699069874L855.078125,486.9252617309601L858.59375,486.93883861215795L862.109375,486.95188042767813L865.625,486.9643898539124L869.140625,486.9763694515258L872.65625,486.9878216669174L876.171875,486.99874883357063L879.6875,487.0091531729521L883.203125,487.019036796004L886.71875,487.0284017038896L890.234375,487.0372497892931L893.75,487.04558283717836L897.265625,487.05340252586586L900.78125,487.06071042766723L904.296875,487.06750800993007L907.8125,487.07379663567815L911.328125,487.07957756384724L914.84375,487.0848519509999L918.359375,487.0896208507761L921.875,487.0938852150541L925.390625,487.0976458941743L928.90625,487.10090363745167L932.421875,487.10365909360837L935.9375,487.10591281098505L939.453125,487.10766523780103L942.96875,487.10891672253115L946.484375,487.1096675139976L950.0,487.10991776111086L953.515625,487.1096675139022L957.03125,487.1089167225399L960.546875,487.1076652377808L964.0625,487.10591281097277L967.578125,487.1036590936268L971.09375,487.10090363742427L974.609375,487.0976458941632L978.125,487.09388521504786L981.640625,487.0896208507926L985.15625,487.08485195102026L988.671875,487.0795775638404L992.1875,487.07379663559016L995.703125,487.0675080099178L999.21875,487.06071042769906L1002.734375,487.0534025258495L1006.25,487.04558283717404L1009.765625,487.0372497893062L1013.28125,487.0284017038872L1016.796875,487.0190367960141L1020.3125,487.0091531729603L1023.828125,486.99874883357154L1027.34375,486.987821666934L1030.859375,486.9763694515518L1034.375,486.96438985390284L1037.890625,486.9518804277001L1041.40625,486.9388386121851L1044.921875,486.9252617309746L1048.4375,486.9111469906866L1051.953125,486.8964914795291L1055.46875,486.8812921656563L1058.984375,486.86554589563957L1062.5,486.8492493928172L1066.015625,486.83239925545956L1069.53125,486.8149919550739L1073.046875,486.7970238345688L1076.5625,486.7784911060411L1080.078125,486.7593898489124L1083.59375,486.7397160078616L1087.109375,486.71946539039993L1090.625,486.69863366473624L1094.140625,486.67721635732266L1097.65625,486.6552088504113L1101.171875,486.63260637938095L1104.6875,486.6094040301931L1108.203125,486.58559673657396L1111.71875,486.56117927694197L1115.234375,486.53614627180866L1118.75,486.51049218030084L1122.265625,486.48421129725557L1125.78125,486.4572977496223L1129.296875,486.4297454931841L1132.8125,486.4015483089546L1136.328125,486.3726997993648L1139.84375,486.34319338470686L1143.359375,486.31302229876883L1146.875,486.28217958495634L1150.390625,486.25065809207683L1153.90625,486.21845046970554L1157.421875,486.18554916377855L1160.9375,486.1519464117347L1164.453125,486.11763423768L1167.96875,486.0826044472541L1171.484375,486.0468486223348L1175.0,486.01035811554266L1178.515625,485.973124044834L1182.03125,485.93513728716096L1185.546875,485.8963884727051L1189.0625,485.8568679786424L1192.578125,485.8165659222974L1196.09375,485.7754721546627L1199.609375,485.73357625315987L1203.125,485.690867514543L1206.640625,485.6473349471073L1210.15625,485.6029672631046L1213.671875,485.55775287058657L1217.1875,485.51167986466623L1220.703125,485.4647360192554L1224.21875,485.4169087776396L1227.734375,485.3681852430966L1231.25,485.31855216927545L1234.765625,485.2679959501444L1238.28125,485.21650260893284L1241.796875,485.1640577876267L1245.3125,485.1106467357042L1248.828125,485.05625429802546L1252.34375,485.0008649026122L1255.859375,484.94446254782395L1259.375,484.88703078974015L1262.890625,484.8285527268648L1266.40625,484.76901098775147L1269.921875,484.7083877148185L1273.4375,484.6466645486936L1276.953125,484.58382261310965L1280.46875,484.5198424969419L1283.984375,484.4547042371073L1287.5,484.38838730092925L1291.015625,484.3208705662746L1294.53125,484.2521323020492L1298.046875,484.1821501477009L1301.5625,484.1109010915412L1305.078125,484.0383614480994L1308.59375,483.96450683556236L1312.109375,483.8893121498634L1315.625,483.812751540523L1319.140625,483.7347983832208L1322.65625,483.65542525239687L1326.171875,483.57460389186645L1329.6875,483.4923051845525L1333.203125,483.4084991206362L1336.71875,483.32315476443864L1340.234375,483.23624021962075L1343.75,483.1477225926119L1347.265625,483.0575679548257L1350.78125,482.965741302182L1354.296875,482.8722065140772L1357.8125,482.7769263090297L1361.328125,482.6798621988336L1364.84375,482.580974440158L1368.359375,482.4802219842584L1371.875,482.37756242393755L1375.390625,482.2729519375472L1378.90625,482.16634523041785L1382.421875,482.05769547319153L1385.9375,481.9469542375964L1389.453125,481.83407142760393L1392.96875,481.7189952081055L1396.484375,481.60167192973995L1400.0,481.4820460483379L1403.515625,481.3600600425773L1407.03125,481.2356543241822L1410.546875,481.108767145706L1414.0625,480.9793345014732L1417.578125,480.8472900242343L1421.09375,480.71256487486005L1424.609375,480.57508762666396L1428.125,480.4347841421362L1431.640625,480.29157744378165L1435.15625,480.14538757571233L1438.671875,479.99613145842886L1442.1875,479.8437227340454L1445.703125,479.6880716024277L1449.21875,479.5290846472834L1452.734375,479.3666646513076L1456.25,479.2007103995277L1459.765625,479.03111647098865L1463.28125,478.8577730159062L1466.796875,478.68056551938923L1470.3125,478.49937454898463L1473.828125,478.3140754858324L1477.34375,478.12453823771136L1480.859375,477.93062693164745L1484.375,477.73219958794914L1487.890625,477.52910776779777L1491.40625,477.32119619959644L1494.921875,477.1083023760423L1498.4375,476.89025612359296L1501.953125,476.66687913976193L1505.46875,476.43798449620976L1508.984375,476.2033761050807L1512.5,475.9628481433607L1516.015625,475.71618443427576L1519.53125,475.46315777981624L1523.046875,475.2035292400435L1526.5625,474.93704735494873L1530.078125,474.66344730245146L1533.59375,474.38244998739106L1537.109375,474.09376105348883L1540.625,473.7970698117083L1544.140625,473.4920480758085L1547.65625,473.1783488954983L1551.171875,472.8556051780862L1554.6875,472.52342818304567L1558.203125,472.1814058813162L1561.71875,471.82910115857976L1565.234375,471.46604985044064L1568.75,471.09175858602066L1572.265625,470.7057024219945L1575.78125,470.3073222385316L1579.296875,469.8960218730358L1582.8125,469.47116495580326L1586.328125,469.03207141401424L1589.84375,468.5780136009396L1593.359375,468.1082120025342L1596.875,467.6218304667391L1600.390625,467.1179708919775L1603.90625,466.59566730161976L1607.421875,466.0538792191842L1610.9375,465.49148424713144L1614.453125,464.9072697327058L1617.96875,464.29992338806585L1621.484375,463.66802270769176L1625.0,463.0100229980262L1628.515625,462.3242438016151L1632.03125,461.60885345862584L1635.546875,460.8618514985443L1639.0625,460.0810484980543L1642.578125,459.2640429672416L1646.09375,458.4081947373685L1649.609375,457.510594217052L1653.125,456.5680267446479L1656.640625,455.5769310970776L1660.15625,454.5333510072404L1663.671875,453.43287826455366L1667.1875,452.27058564821186L1670.703125,451.04094749694457L1674.21875,449.73774516893104L1677.734375,448.3539539202868L1681.25,446.8816067862808L1684.765625,445.3116298072481L1688.28125,443.6336412890174L1691.796875,441.83570556626023L1695.3125,439.90402873808864L1698.828125,437.82257972303046L1702.34375,435.5726142673816L1705.859375,433.13207153011945L1709.375,430.4748014424298L1712.890625,427.5695645497955L1716.40625,424.37872180968236L1719.921875,420.8564955909908L1723.4375,416.94662787947436L1726.953125,412.57917562074704L1730.46875,407.6660457539773L1733.984375,402.0946472604843L1737.5,395.71865694065104L1741.015625,388.34423004568794L1744.53125,379.7087764551334L1748.046875,369.4471198846759L1751.5625,357.0352372828297L1755.078125,341.6919079307129L1758.59375,322.19587515825526L1762.109375,296.51868167166515L1765.625,261.0100055925101L1769.140625,208.32990261095563L1772.65625,121.0843471215262L1776.171875,-54.799425624599735L1779.6875,-615.7748908542042L1783.203125,-9303.573085398404L1786.71875,-439.7604531841939L1790.234375,-372.0804389360294L1793.75,-9357.360606248603L1797.265625,-448.6971011673936L1800.78125,21.140744760480857L1804.296875,171.04626045591442L1807.8125,246.36417958066784L1811.328125,292.19754455817883L1814.84375,323.1309507915081L1818.359375,345.3532350529608L1821.875,361.95565267637903L1825.390625,374.6574517483581L1828.90625,384.48818369327626L1832.421875,392.0965544845716L1835.9375,397.9048659675477L1839.453125,402.1922602839471L1842.96875,405.14209992593806L1846.484375,406.86977745573813" fill="none" stroke="rgb(255,0,0)" stroke-width="1"/>
     </g>
     <g transform="translate(0.0,0.0)">
          <text pointer-events="none" x="3" y="-3" transform="translate(50,80)" fill="rgb(255,0,0)">F(x) = FT(f(x))</text>
     </g>
     <g transform="translate(0.0,0.0)">
          <path d="M50.0,446.5787106658207L53.515625,458.2312904036273L57.03125,471.37276614279597L60.546875,485.3516678500057L64.0625,499.4903054644887L67.578125,513.118529144266L71.09375,525.6064583496008L74.609375,536.3945389929452L78.125,545.0194518592095L81.640625,551.1346338859934L85.15625,554.5244732174208L88.671875,555.1115826588314L92.1875,552.9569255529154L95.703125,548.2529433172546L99.21875,541.310195005493L102.734375,532.5383473523992L106.25,522.4226319105242L109.765625,511.4971000437552L113.28125,500.3161462822439L116.796875,489.4258295674712L120.3125,479.33649835381914L123.828125,470.4981219891953L127.34375,463.2795541596114L130.859375,457.9527151996565L134.375,454.68239272196456L137.890625,453.5220407156314L141.40625,454.41562392509536L144.921875,457.2052253778055L148.4375,461.6438283063301L151.953125,467.4124158509527L155.46875,474.14031690571653L158.984375,481.4275752406452L162.5,488.8680388654317L166.015625,496.07186072079134L169.53125,502.6861692402369L173.046875,508.41280308729193L176.5625,513.0221996609641L180.078125,516.3627697751401L183.59375,518.3653667427677L187.109375,519.0427507477359L190.625,518.4842419359529L194.140625,516.8460313868153L197.65625,514.3378624796447L201.171875,511.2069926141892L204.6875,507.72048602325236L208.203125,504.1469651317301L211.71875,500.7389569289577L215.234375,497.7169124195987L218.75,495.25585557992497L222.265625,493.4754411691006L225.78125,492.43397917741845L229.296875,492.1267310883898L232.8125,492.48851465962844L236.328125,493.40038559502693L239.84375,494.6999122058461L243.359375,496.1943378511047L246.875,497.6757486541348L250.390625,498.93724114414994L253.90625,499.78902328801615L257.421875,500.0733864519572L260.9375,499.677554925351L264.453125,498.54354969240103L267.96875,496.67438650801427L271.484375,494.13615423046457L275.0,491.05577446523574L278.515625,487.61451279857044L282.03125,484.03757926616106L285.546875,480.58040525951856L289.0625,477.5124008157153L292.578125,475.0991669823334L296.09375,473.58425210860514L299.609375,473.1715911146297L303.125,474.00974932783686L306.640625,476.1790075479455L310.15625,479.6821767302764L313.671875,484.439826899869L317.1875,490.29036676228134L320.703125,496.9951317877382L324.21875,504.248345063437L327.734375,511.69152372817393L331.25,518.9316312145821L334.765625,525.5620378537005L338.28125,531.1851638900287L341.796875,535.4355512485871L345.3125,538.0020518302655L348.828125,538.6478352251692L352.34375,537.2270079624901L355.859375,533.6967960205869L359.375,528.1244645526826L362.890625,520.688422263549L366.40625,511.6732681913789L369.921875,501.4588691289803L373.4375,490.50388851768594L376.953125,479.3245039438002L380.46875,468.4693325750626L383.984375,458.4918158352192L387.5,449.921482709158L391.015625,443.2356049982184L394.53125,438.83277122960635L398.046875,437.00983670942287L401.5625,437.94355782272066L405.078125,441.67799595554993L408.59375,448.11849125160086L412.109375,457.0326732595505L415.625,468.0586116016234L419.140625,480.7198342064207L422.65625,494.4465733720735L426.171875,508.60226072973114L429.6875,522.5139995576336L433.203125,535.5055130670381L436.71875,546.9309132792603L440.234375,556.2075660671487L443.75,562.8463485388135L447.265625,566.4777051661055L450.78125,566.8721041078346L454.296875,563.9537657024978L457.8125,557.8068676705402L461.328125,548.673809330571L464.84375,536.9455207190454L468.359375,523.1442110053313L471.875,507.8993426839181L475.390625,491.9179730740642L478.90625,475.9509038348649L482.421875,460.7563064868817L485.9375,447.0626349651918L489.453125,435.53268700166996L492.96875,426.7306314215367L496.484375,421.0936799970367L500.0,418.9098569977018L503.515625,420.30301825925983L507.03125,425.2259097183612L510.546875,433.4616514012997L514.0625,444.63360754568066L517.578125,458.2231787843996L521.09375,473.5946500714749L524.609375,490.0258690978749L528.125,506.74323293730623L531.640625,522.9592409881677L535.15625,537.9107413455972L538.671875,550.8959623493147L542.1875,561.3084830472721L545.703125,568.6664524708897L549.21875,572.6356098231388L552.734375,573.0449733606636L556.25,569.8944385298016L559.765625,563.3539364785606L563.28125,553.7542311733814L566.796875,541.5698549536269L570.3125,527.3950767583817L573.828125,511.91414424251496L577.34375,495.8673228805874L580.859375,480.0144577131837L584.375,465.09789658063517L587.890625,451.80663217210724L591.40625,440.7434436072805L594.921875,432.39665113217484L598.4375,427.11784910666734L601.953125,425.10666622693793L605.46875,426.40323474663296L608.984375,430.8886517653133L612.5,438.29330637362136L616.015625,448.21254790687203L619.53125,460.12880335420255L623.046875,473.43893487712705L626.5625,487.4853773959338L630.078125,501.58942367875704L633.59375,515.084938450028L637.109375,527.3507872225443L640.625,537.8403585702224L644.140625,546.1067344465363L647.65625,551.8223116537608L651.171875,554.7919846922256L654.6875,554.9593490322136L658.203125,552.4057554032884L661.71875,547.3424200554292L665.234375,540.0961532713193L668.75,531.0895900119642L672.265625,520.8170759138641L675.78125,509.8175653868226L679.296875,498.6460164527579L682.8125,487.84481357359607L686.328125,477.91671384576455L689.84375,469.3006968566019L693.359375,462.3519117060449L696.875,457.32666747428186L700.390625,454.37312016271403L703.90625,453.52798655149L707.421875,454.7192815626727L710.9375,457.7747490133668L714.453125,462.43535385014457L717.96875,468.37294321542095L721.484375,475.2109776561632L725.0,482.5470928781615L728.515625,489.9761833549792L732.03125,497.1127044181943L735.546875,503.61096760753105L739.0625,509.18234942445844L742.578125,513.6085369086529L746.09375,516.7501822147291L749.609375,518.5506177872346L753.125,519.0345774559698L756.640625,518.302159842033L760.15625,516.5185422776183L763.671875,513.9001906932035L767.1875,510.69850045555296L770.703125,507.1819346642949L774.21875,503.61779308224914L777.734375,500.25474362859023L781.25,497.3071800884014L784.765625,494.9423391308944L788.28125,493.27092518802044L791.796875,492.3417645966102L795.3125,492.1407544145129L798.828125,492.594101838748L802.34375,493.57558323445915L805.859375,494.9173032512957L809.375,496.42321904123565L812.890625,497.88452489606584L816.40625,499.09587867631666L819.921875,499.8713999012584L823.4375,500.05938333661L826.953125,499.5547505318158L830.46875,498.30840040597997L833.984375,496.3328105095835L837.5,493.7034717834573L841.015625,490.5559978592368L844.53125,487.07901992121526L848.046875,483.5032438436115L851.5625,480.08729186106984L855.078125,477.10116163982764L858.59375,474.8082984534774L862.109375,473.4473810891558L865.625,473.2149622726847L869.140625,474.2500766787433L872.65625,476.6218347756459L876.171875,480.3208635442661L879.6875,485.2552438721474L883.203125,491.2513407419717L886.71875,498.05964037592895L890.234375,505.3654142303019L893.75,512.8037400272381L897.265625,519.9781416846931L900.78125,526.4818788768741L904.296875,531.9207369285639L907.8125,535.9360499984748L911.328125,538.2266428348013L914.84375,538.5684027256661L918.359375,536.8302934247235L921.875,532.9857924494517L925.390625,527.1189639011891L928.90625,519.4246589645221L932.421875,510.2026507057797L935.9375,499.84584176309215L939.453125,488.82301484013857L942.96875,477.6569081909597L946.484375,466.8986739112254L950.0,457.1000000000005L953.515625,448.78433465952594L957.03125,442.41873341460837L960.546875,438.3878506120277L964.0625,436.9715153187532L967.578125,438.3271706754624L971.09375,442.47822284888696L974.609375,449.30905234285365L978.125,458.5671014838879L981.640625,469.87208496311575L985.15625,482.7319946949983L988.671875,496.5652059574736L992.1875,510.72765845249813L995.703125,524.5438017855248L999.21875,537.3397756975362L1002.734375,548.4771536837331L1006.25,557.3855228891352L1009.765625,563.5922073793474L1013.28125,566.7475652931968L1016.796875,566.6444974916053L1020.3125,563.2310861268132L1023.828125,556.6156220712362L1027.34375,547.0636630822055L1030.859375,534.9871702630562L1034.375,520.9261777726197L1037.890625,505.5238385385331L1041.40625,489.4960365174345L1044.921875,473.5970453493178L1048.4375,458.5829285498071L1051.953125,445.17450593570925L1055.46875,434.02174747042L1058.984375,425.6713966660567L1062.5,420.53947359502604L1066.015625,418.89006982862975L1069.53125,420.82153612813283L1073.046875,426.26079425936837L1076.5625,434.9660957639462L1080.078125,446.53812388104575L1083.59375,460.43891206183696L1087.109375,476.0176554979671L1090.625,492.54214134974285L1094.140625,509.2342370921074L1097.65625,525.3076694520594L1101.171875,540.0062095388328L1104.6875,552.6403590378786L1108.203125,562.6207088303354L1111.71875,569.4863111361906L1115.234375,572.9266604444831L1118.75,572.7962038942783L1122.265625,569.1206815271005L1125.78125,562.0950112731701L1129.296875,552.0728612262533L1132.8125,539.5484706363793L1136.328125,525.1316695581661L1139.84375,509.5173853347976L1143.359375,493.451194858385L1146.875,477.6926711886488L1150.390625,462.9783722748789L1153.90625,449.9863236032571L1157.421875,439.3037559501622L1160.9375,431.39967935764037L1164.453125,426.6036148855733L1167.96875,425.09148064295846L1171.484375,426.8792553888819L1175.0,431.82464134590793L1178.515625,439.63653884794326L1182.03125,449.8917503377902L1185.546875,462.0579704224808L1189.0625,475.5218106043495L1192.578125,489.62036742408765L1196.09375,503.6746828492319L1199.609375,517.0233732733078L1203.125,529.0547212415731L1206.640625,539.2356299923076L1210.15625,547.1360284704862L1213.671875,552.4475727667879L1217.1875,554.9958044745977L1220.703125,554.7452799389273L1224.21875,551.7975576302844L1227.734375,546.3823039241892L1231.25,538.8421306700792L1234.765625,529.612092665187L1238.28125,519.1950333655977L1241.796875,508.1341598470749L1245.3125,496.98434394387743L1248.828125,486.2836806574835L1252.34375,476.52678682302565L1255.859375,468.1411965709998L1259.375,461.4680134325308L1262.890625,456.74772380120794L1266.40625,454.1117776867012L1269.921875,453.5802172408437L1273.4375,455.065299585865L1276.953125,458.38073641221274L1280.46875,463.2558762166067L1283.984375,469.3539017401763L1287.5,476.29291834553976L1291.015625,483.6686786400851L1294.53125,491.07763069025765L1298.046875,498.13899365059757L1301.5625,504.514653349784L1305.078125,509.9258251331075L1308.59375,514.1656422408336L1312.109375,517.1070823690773L1315.625,518.7059277027523L1319.140625,518.9987481213584L1322.65625,518.0961864885304L1326.171875,516.1720924836382L1329.6875,513.4492822828174L1333.203125,510.1828827775818L1336.71875,506.642341133269L1340.234375,503.09323703874617L1343.75,499.78002351403L1347.265625,496.91074410134365L1350.78125,494.644634969311L1354.296875,493.08332871555297L1357.8125,492.26614423587847L1361.328125,492.1696879975184L1364.84375,492.71172192590376L1368.359375,493.7589879684906L1371.875,495.13843494341035L1375.390625,496.6510839518613L1378.90625,498.0876067617551L1382.421875,499.2445866776677L1385.9375,499.94038966064824L1389.453125,500.0295973014433L1392.96875,499.4150412847046L1396.484375,498.05662603629287L1400.0,495.97632367694627L1403.515625,493.25896158741403L1407.03125,490.04868388658656L1410.546875,486.5412384868034L1414.0625,482.9725050506645L1417.578125,479.6039203680708L1421.09375,476.70566185610414L1424.609375,474.5386045810644L1428.125,473.3361627296656L1431.640625,473.2871565114888L1435.15625,474.520807508864L1438.671875,477.09486089331926L1442.1875,480.98766696854204L1445.703125,486.0948360640822L1449.21875,492.23082190863704L1452.734375,499.1355037492114L1456.25,506.4855428130836L1459.765625,513.9100011584214L1463.28125,521.009447255658L1466.796875,527.3775483714535L1470.3125,532.6239785300525L1473.828125,536.3973632140762L1477.34375,538.4069452780602L1480.859375,538.4416941092843L1484.375,536.3856910572711L1487.890625,532.2288035941781L1491.40625,526.0718996690291L1494.921875,518.1261399197103L1498.4375,508.7062036264964L1501.953125,498.21763734377447L1505.46875,487.13884476800433L1508.984375,475.99854425414344L1512.5,465.34978908080893L1516.015625,455.74185960190835L1519.53125,447.69148311326455L1523.046875,441.65490743283544L1526.5625,438.00234273556134L1530.078125,436.9961923843265L1533.59375,438.7743211309752L1537.109375,443.33936622388524L1540.625,450.5547956929063L1544.140625,460.1480737508226L1547.65625,471.72092374579563L1551.171875,484.76630390035257L1554.6875,498.69135020348L1558.203125,512.845213781613L1561.71875,526.5504447726929L1565.234375,539.1363665098124L1568.75,549.9727546180009L1572.265625,558.5020932759251L1575.78125,564.2687286895816L1579.296875,566.9433762918705L1582.8125,566.3416571224964L1586.328125,562.4356296194974L1589.84375,555.3576311255212L1593.359375,545.3961310745458L1596.875,532.9837051294382L1600.390625,518.6776453376481L1603.90625,503.1341044245344L1607.421875,487.07701245088515L1610.9375,471.2632831388212L1614.453125,456.446030213118L1617.96875,443.337630008515L1621.484375,432.57448874590375L1625.0,424.68529955157385L1628.515625,420.064408734159L1632.03125,418.9516611387255L1635.546875,421.4197730886873L1639.0625,427.36990482183353L1642.578125,436.535691687003L1646.09375,448.4955658985424L1649.609375,462.69278038806067L1653.125,478.4621549692622L1656.640625,495.0622229042542L1660.15625,511.71118077087743L1663.671875,527.6248505598508L1667.1875,542.0547602561846L1670.703125,554.3244431110863L1674.21875,563.8621467079784L1677.734375,570.2283260422053L1681.25,573.1365606594551L1684.765625,572.4668706347759L1688.28125,568.2707924622247L1691.796875,560.7679937586881L1695.3125,550.3346334623823L1698.828125,537.4840898608846L1702.34375,522.8410609468773L1705.859375,507.1103707105051L1709.375,491.0420743068542L1712.890625,475.3946315511521L1716.40625,460.89800322434974L1719.921875,448.21851435293104L1723.4375,437.92722407296003L1726.953125,430.4733489230308L1730.46875,426.16401600824724L1733.984375,425.15128900258435L1737.5,427.4270311606683L1741.015625,432.8257653885371L1744.53125,441.03528314473124L1748.046875,451.61436273057507L1751.5625,464.01660353738396L1755.078125,477.6190840837626L1758.59375,491.7543231753681L1762.109375,505.7438764073951L1765.625,518.9318412743066L1769.140625,530.7165754205757L1772.65625,540.5790513479211L1776.171875,548.1064698956313L1779.6875,553.0100225731071L1783.203125,555.1360143856288L1786.71875,554.4699165082491L1790.234375,551.1332926731376L1793.75,545.3739144240234L1797.265625,537.5497288527899L1800.78125,528.1076499274502L1804.296875,517.5583953216278L1807.8125,506.44877227636607L1811.328125,495.33291985098606L1814.84375,484.744036628789L1818.359375,475.1680626936609L1821.875,467.02064706123724L1825.390625,460.6285254286996L1828.90625,456.21617039698276L1832.421875,453.8982724018898L1835.9375,453.67828167985897L1839.453125,455.4529079641684L1842.96875,459.0221535864687L1846.484375,464.10416461912905" fill="none" stroke="rgb(0,0,255)" stroke-width="1"/>
     </g>
     <g transform="translate(0.0,0.0)">
          <text pointer-events="none" x="3" y="-3" transform="translate(50,110)" fill="rgb(0,0,255)">F(x) = RFT(FT(f(x)))</text>
     </g>
     <g transform="translate(0.0,0.0)">
          <path d="M50.0,411.3388976911817L53.515625,410.76977745575005L57.03125,409.0420999259102L60.546875,406.09226028397757L64.0625,401.8048659675477L67.578125,395.996554484718L71.09375,388.3881836933108L74.609375,378.5574517484141L78.125,365.8556526763315L81.640625,349.2532350529989L85.15625,327.0309507915017L88.671875,296.09754455811276L92.1875,250.26417958080015L95.703125,174.94626045588598L99.21875,25.040744760651933L102.734375,-444.7971011673594L106.25,-9353.460606248718L109.765625,-368.1804389360175L113.28125,-435.86045318434594L116.796875,-9299.67308539842L120.3125,-611.8748908544987L123.828125,-50.89942562454917L127.34375,124.98434712151493L130.859375,212.22990261083078L134.375,264.9100055924182L137.890625,300.41868167161306L141.40625,326.09587515828593L144.921875,345.59190793068615L148.4375,360.935237282853L151.953125,373.3471198846804L155.46875,383.6087764551087L158.984375,392.24423004571497L162.5,399.61865694066296L166.015625,405.99464726055544L169.53125,411.56604575392225L173.046875,416.4791756207908L176.5625,420.8466278796027L180.078125,424.7564955909995L183.59375,428.2787218096661L187.109375,431.469564549805L190.625,434.37480144245103L194.140625,437.0320715301265L197.65625,439.47261426740226L201.171875,441.7225797230102L204.6875,443.8040287381224L208.203125,445.7357055661698L211.71875,447.53364128902285L215.234375,449.21162980725546L218.75,450.78160678614495L222.265625,452.2539539202419L225.78125,453.63774516893545L229.296875,454.9409474969449L232.8125,456.17058564824583L236.328125,457.33287826458525L239.84375,458.4333510072295L243.359375,459.47693109709087L246.875,460.46802674447895L250.390625,461.4105942171001L253.90625,462.308194737436L257.421875,463.16404296728547L260.9375,463.98104849810034L264.453125,464.7618514985163L267.96875,465.50885345864344L271.484375,466.22424380169616L275.0,466.9100229980744L278.515625,467.5680227077204L282.03125,468.19992338806117L285.546875,468.8072697327161L289.0625,469.3914842471802L292.578125,469.9538792192043L296.09375,470.4956673015953L299.609375,471.0179708920115L303.125,471.5218304667537L306.640625,472.0082120025377L310.15625,472.47801360094286L313.671875,472.93207141401L317.1875,473.37116495579016L320.703125,473.7960218730575L324.21875,474.20732223858465L327.734375,474.6057024220007L331.25,474.9917585861134L334.765625,475.3660498504655L338.28125,475.7291011586357L341.796875,476.081405881288L345.3125,476.4234281830578L348.828125,476.7556051780251L352.34375,477.07834889554715L355.859375,477.3920480757507L359.375,477.69706981171737L362.890625,477.99376105349813L366.40625,478.2824499873948L369.921875,478.5634473024709L373.4375,478.8370473549595L376.953125,479.10352924008464L380.46875,479.3631577798295L383.984375,479.61618443426914L387.5,479.8628481433251L391.015625,480.1033761050925L394.53125,480.3379844962765L398.046875,480.56687913972746L401.5625,480.79025612357805L405.078125,481.00830237605123L408.59375,481.22119619961677L412.109375,481.42910776783367L415.625,481.63219958790114L419.140625,481.83062693166323L422.65625,482.0245382375664L426.171875,482.21407548583886L429.6875,482.39937454896756L433.203125,482.5805655193536L436.71875,482.7577730158804L440.234375,482.9311164709661L443.75,483.10071039954323L447.265625,483.2666646512863L450.78125,483.4290846473085L454.296875,483.58807160242293L457.8125,483.74372273400945L461.328125,483.8961314584078L464.84375,484.0453875757195L468.359375,484.19157744380095L471.875,484.3347841421895L475.390625,484.47508762663847L478.90625,484.61256487488424L482.421875,484.7472900242284L485.9375,484.87933450146556L489.453125,485.008767145653L492.96875,485.1356543241824L496.484375,485.26006004257704L500.0,485.3820460484096L503.515625,485.50167192970616L507.03125,485.618995208177L510.546875,485.7340714275921L514.0625,485.8469542375917L517.578125,485.9576954732105L521.09375,486.0663452303668L524.609375,486.17295193755683L528.125,486.2775624239764L531.640625,486.38022198427336L535.15625,486.48097444013035L538.671875,486.5798621988532L542.1875,486.676926309137L545.703125,486.77220651416474L549.21875,486.8657413021932L552.734375,486.9575679547555L556.25,487.04772259261847L559.765625,487.136240219612L563.28125,487.2231547644443L566.796875,487.3084991206165L570.3125,487.39230518452644L573.828125,487.47460389186847L577.34375,487.555425252408L580.859375,487.6347983832228L584.375,487.7127515404811L587.890625,487.7893121498413L591.40625,487.8645068355311L594.921875,487.93836144818215L598.4375,488.01090109147754L601.953125,488.08215014766876L605.46875,488.15213230202227L608.984375,488.2208705662448L612.5,488.288387300935L616.015625,488.354704237113L619.53125,488.41984249686624L623.046875,488.48382261315675L626.5625,488.54666454882783L630.078125,488.6083877148479L633.59375,488.66901098782614L637.109375,488.7285527268322L640.625,488.7870307895551L644.140625,488.8444625478272L647.65625,488.90086490254447L651.171875,488.9562542980074L654.6875,489.01064673571204L658.203125,489.06405778760904L661.71875,489.11650260886273L665.234375,489.16799595012054L668.75,489.21855216932687L672.265625,489.26818524308703L675.78125,489.31690877761355L679.296875,489.3647360192606L682.8125,489.41167986467383L686.328125,489.457752870563L689.84375,489.502967263119L693.359375,489.5473349470874L696.875,489.5908675145121L700.390625,489.633576253163L703.90625,489.6754721546597L707.421875,489.71656592230477L710.9375,489.7568679786371L714.453125,489.7963884727137L717.96875,489.83513728713734L721.484375,489.8731240448299L725.0,489.9103581155726L728.515625,489.9468486223106L732.03125,489.98260444723985L735.546875,490.01763423767954L739.0625,490.05194641173784L742.578125,490.0855491637828L746.09375,490.11845046971945L749.609375,490.15065809208573L753.125,490.18217958496956L756.640625,490.2130222987557L760.15625,490.2431933847082L763.671875,490.272699799392L767.1875,490.301548308944L770.703125,490.32974549319187L774.21875,490.3572977496323L777.734375,490.3842112972703L781.25,490.4104921803231L784.765625,490.4361462717955L788.28125,490.4611792769304L791.796875,490.4855967365371L795.3125,490.5094040302006L798.828125,490.5326063793825L802.34375,490.5552088504038L805.859375,490.57721635732764L809.375,490.59863366473417L812.890625,490.61946539039695L816.40625,490.6397160078601L819.921875,490.65938984892244L823.4375,490.6784911060276L826.953125,490.69702383456627L830.46875,490.7149919550898L833.984375,490.73239925544016L837.5,490.7492493927975L841.015625,490.7655458956465L844.53125,490.7812921656648L848.046875,490.79649147953575L851.5625,490.81114699068615L855.078125,490.8252617309514L858.59375,490.8388386121693L862.109375,490.85188042770545L865.625,490.86438985391084L869.140625,490.87636945151087L872.65625,490.8878216669336L876.171875,490.89874883356987L879.6875,490.90915317297504L883.203125,490.91903679600665L886.71875,490.92840170389985L890.234375,490.9372497892956L893.75,490.9455828371935L897.265625,490.95340252586067L900.78125,490.96071042767903L904.296875,490.96750800993766L907.8125,490.97379663557354L911.328125,490.979577563852L914.84375,490.9848519510009L918.359375,490.9896208507881L921.875,490.99388521504795L925.390625,490.99764589415537L928.90625,491.0009036374503L932.421875,491.00365909360966L935.9375,491.00591281097053L939.453125,491.00766523780175L942.96875,491.008916722527L946.484375,491.00966751389615L950.0,491.0099177611107L953.515625,491.0096675138962L957.03125,491.0089167225269L960.546875,491.007665237802L964.0625,491.00591281097053L967.578125,491.0036590936097L971.09375,491.0009036374503L974.609375,490.99764589415526L978.125,490.99388521504795L981.640625,490.9896208507881L985.15625,490.9848519510009L988.671875,490.9795775638519L992.1875,490.9737966355736L995.703125,490.967508009938L999.21875,490.960710427679L1002.734375,490.9534025258607L1006.25,490.94558283719334L1009.765625,490.9372497892956L1013.28125,490.92840170389974L1016.796875,490.91903679600534L1020.3125,490.90915317297515L1023.828125,490.8987488335701L1027.34375,490.88782166693363L1030.859375,490.8763694515108L1034.375,490.8643898539109L1037.890625,490.8518804277055L1041.40625,490.8388386121693L1044.921875,490.8252617309513L1048.4375,490.81114699068615L1051.953125,490.79649147953575L1055.46875,490.7812921656648L1058.984375,490.76554589564654L1062.5,490.7492493927975L1066.015625,490.7323992554402L1069.53125,490.7149919550897L1073.046875,490.6970238345663L1076.5625,490.6784911060276L1080.078125,490.6593898489225L1083.59375,490.6397160078601L1087.109375,490.61946539039684L1090.625,490.5986336647341L1094.140625,490.5772163573277L1097.65625,490.5552088504038L1101.171875,490.5326063793823L1104.6875,490.50940403020047L1108.203125,490.485596736537L1111.71875,490.4611792769306L1115.234375,490.4361462717955L1118.75,490.4104921803229L1122.265625,490.38421129727044L1125.78125,490.3572977496323L1129.296875,490.32974549319187L1132.8125,490.30154830894406L1136.328125,490.2726997993921L1139.84375,490.24319338470815L1143.359375,490.21302229875573L1146.875,490.18217958496956L1150.390625,490.1506580920857L1153.90625,490.11845046971945L1157.421875,490.0855491637826L1160.9375,490.05194641173784L1164.453125,490.0176342376794L1167.96875,489.98260444723985L1171.484375,489.94684862231065L1175.0,489.91035811557265L1178.515625,489.87312404483L1182.03125,489.8351372871373L1185.546875,489.7963884727141L1189.0625,489.7568679786371L1192.578125,489.7165659223049L1196.09375,489.6754721546597L1199.609375,489.63357625316297L1203.125,489.5908675145121L1206.640625,489.54733494708745L1210.15625,489.502967263119L1213.671875,489.4577528705629L1217.1875,489.4116798646739L1220.703125,489.3647360192604L1224.21875,489.3169087776136L1227.734375,489.26818524308715L1231.25,489.21855216932687L1234.765625,489.1679959501206L1238.28125,489.1165026088627L1241.796875,489.06405778760984L1245.3125,489.01064673571216L1248.828125,488.9562542980076L1252.34375,488.90086490254447L1255.859375,488.8444625478273L1259.375,488.7870307895551L1262.890625,488.7285527268323L1266.40625,488.6690109878262L1269.921875,488.60838771484777L1273.4375,488.5466645488278L1276.953125,488.4838226131566L1280.46875,488.41984249686624L1283.984375,488.35470423711297L1287.5,488.288387300935L1291.015625,488.2208705662448L1294.53125,488.1521323020223L1298.046875,488.08215014766853L1301.5625,488.01090109147754L1305.078125,487.93836144818215L1308.59375,487.8645068355311L1312.109375,487.7893121498415L1315.625,487.7127515404811L1319.140625,487.6347983832227L1322.65625,487.5554252524079L1326.171875,487.47460389186836L1329.6875,487.3923051845263L1333.203125,487.3084991206182L1336.71875,487.2231547644444L1340.234375,487.13624021961186L1343.75,487.0477225926186L1347.265625,486.9575679547554L1350.78125,486.8657413021932L1354.296875,486.7722065141646L1357.8125,486.676926309137L1361.328125,486.57986219885345L1364.84375,486.48097444013035L1368.359375,486.3802219842735L1371.875,486.2775624239764L1375.390625,486.17295193755695L1378.90625,486.0663452303668L1382.421875,485.9576954732104L1385.9375,485.8469542375916L1389.453125,485.7340714275922L1392.96875,485.618995208177L1396.484375,485.5016719297063L1400.0,485.3820460484096L1403.515625,485.26006004257715L1407.03125,485.1356543241824L1410.546875,485.008767145653L1414.0625,484.87933450146556L1417.578125,484.7472900242286L1421.09375,484.61256487488424L1424.609375,484.47508762663836L1428.125,484.3347841421895L1431.640625,484.19157744380095L1435.15625,484.0453875757195L1438.671875,483.8961314584077L1442.1875,483.74372273400945L1445.703125,483.5880716024235L1449.21875,483.4290846473085L1452.734375,483.2666646512863L1456.25,483.1007103995423L1459.765625,482.9311164709661L1463.28125,482.7577730158803L1466.796875,482.5805655193536L1470.3125,482.39937454896756L1473.828125,482.2140754858391L1477.34375,482.0245382375664L1480.859375,481.83062693166323L1484.375,481.63219958790114L1487.890625,481.42910776783367L1491.40625,481.2211961996169L1494.921875,481.00830237605123L1498.4375,480.79025612357805L1501.953125,480.56687913972746L1505.46875,480.3379844962766L1508.984375,480.10337610509237L1512.5,479.8628481433251L1516.015625,479.61618443426914L1519.53125,479.3631577798295L1523.046875,479.1035292400845L1526.5625,478.8370473549595L1530.078125,478.5634473024711L1533.59375,478.2824499873948L1537.109375,477.99376105349836L1540.625,477.69706981171737L1544.140625,477.3920480757507L1547.65625,477.07834889554715L1551.171875,476.755605178025L1554.6875,476.4234281830577L1558.203125,476.0814058812879L1561.71875,475.7291011586359L1565.234375,475.3660498504655L1568.75,474.99175858611375L1572.265625,474.60570242200083L1575.78125,474.20732223858465L1579.296875,473.7960218730574L1582.8125,473.37116495579016L1586.328125,472.93207141401035L1589.84375,472.47801360094286L1593.359375,472.0082120025377L1596.875,471.5218304667537L1600.390625,471.0179708920117L1603.90625,470.4956673015953L1607.421875,469.95387921920394L1610.9375,469.3914842471802L1614.453125,468.8072697327161L1617.96875,468.19992338806117L1621.484375,467.5680227077203L1625.0,466.9100229980745L1628.515625,466.2242438016964L1632.03125,465.50885345864344L1635.546875,464.7618514985162L1639.0625,463.98104849810034L1642.578125,463.1640429672859L1646.09375,462.308194737436L1649.609375,461.4105942171001L1653.125,460.46802674447883L1656.640625,459.476931097091L1660.15625,458.43335100722936L1663.671875,457.332878264585L1667.1875,456.17058564824595L1670.703125,454.9409474969457L1674.21875,453.63774516893545L1677.734375,452.2539539202421L1681.25,450.78160678614427L1684.765625,449.2116298072556L1688.28125,447.53364128902274L1691.796875,445.7357055661705L1695.3125,443.8040287381225L1698.828125,441.7225797230109L1702.34375,439.47261426740226L1705.859375,437.0320715301266L1709.375,434.3748014424509L1712.890625,431.4695645498051L1716.40625,428.2787218096661L1719.921875,424.7564955909993L1723.4375,420.8466278796026L1726.953125,416.4791756207911L1730.46875,411.56604575392237L1733.984375,405.99464726055544L1737.5,399.61865694066296L1741.015625,392.2442300457153L1744.53125,383.6087764551087L1748.046875,373.3471198846805L1751.5625,360.9352372828529L1755.078125,345.59190793068797L1758.59375,326.09587515828593L1762.109375,300.4186816716134L1765.625,264.910005592418L1769.140625,212.2299026108319L1772.65625,124.98434712151482L1776.171875,-50.89942562454894L1779.6875,-611.8748908544987L1783.203125,-9299.67308539842L1786.71875,-435.8604531843464L1790.234375,-368.1804389360177L1793.75,-9353.46060624872L1797.265625,-444.79710116735987L1800.78125,25.04074476065125L1804.296875,174.9462604558869L1807.8125,250.26417958079946L1811.328125,296.09754455811344L1814.84375,327.0309507915015L1818.359375,349.2532350529989L1821.875,365.8556526763309L1825.390625,378.557451748414L1828.90625,388.3881836933107L1832.421875,395.9965544847181L1835.9375,401.8048659675476L1839.453125,406.0922602839777L1842.96875,409.04209992590995L1846.484375,410.7697774557498" fill="none" stroke="rgb(0,128,0)" stroke-width="1"/>
     </g>
     <g transform="translate(0.0,0.0)">
          <text pointer-events="none" x="3" y="-3" transform="translate(50,140)" fill="rgb(0,128,0)">FFT</text>
     </g>
     <g transform="translate(0.0,0.0)">
          <path d="M50.0,471.90416461912514L53.515625,466.8416660895407L57.03125,463.32285937196L60.546875,461.61175024299473L64.0625,461.8842479860134L67.578125,464.21552557484404L71.09375,468.57269805308226L74.609375,474.813368507355L78.125,482.69026765738715L81.640625,491.86186897218795L85.15625,501.90851596230385L88.671875,512.3532720454933L92.1875,522.686415663962L95.703125,532.3922718644176L99.21875,540.9769111447565L102.734375,547.9951679610308L106.25,553.0754411962889L109.765625,555.9408383357531L113.28125,556.4254099941593L116.796875,554.4844825585469L120.3125,550.1984200792365L123.828125,543.7695142184799L127.34375,535.5120921248322L130.859375,525.836323837902L134.375,515.2265800966047L137.890625,504.2155160254903L141.40625,493.3553162155904L144.921875,483.1877158561165L148.4375,474.214499068682L151.953125,466.8701630905957L155.46875,461.498324949565L158.984375,458.3332412471401L162.5,457.4875228325991L166.015625,458.9467708444761L169.53125,462.57145937233145L173.046875,468.10596640620645L176.5625,475.1942339676576L180.078125,483.40114562310475L183.59375,492.23836879115174L187.109375,501.1931412774333L190.625,509.75830298386745L194.140625,517.4617961340803L197.65625,523.8938859838141L201.171875,528.7304877713143L204.6875,531.7512171202079L208.203125,532.8510967391798L211.71875,532.0452333433769L215.234375,529.4662024094387L218.75,525.3543190851917L222.265625,520.0414045367783L225.78125,513.9290519164463L229.296875,507.46273074003807L232.8125,501.1033221277939L236.328125,495.2978343189516L239.84375,490.4510982313125L243.359375,486.90018322918024L246.875,484.89310706752974L250.390625,484.5731511484024L253.90625,485.96974868828977L257.421875,488.99651009725505L260.9375,493.45651148876607L264.453125,499.0545256652121L267.96875,505.4154476037255L271.484375,512.1077847012862L275.0,518.6707693516869L278.515625,524.643427105866L282.03125,529.5938115588144L285.546875,533.1466047566221L289.0625,535.0073800996807L292.578125,534.9820273843134L296.09375,532.9901342810647L299.609375,529.0714870312843L303.125,523.385272754396L306.640625,516.2020106708657L310.15625,507.88868241484886L313.671875,498.887945267926L317.1875,489.69267128436906L320.703125,480.8173380167548L324.21875,472.76798577684883L327.734375,466.01254078437114L331.25,460.95327836375895L334.765625,457.90306751074286L338.28125,457.066806246169L341.796875,458.5291408367508L345.3125,462.2491809404878L348.828125,468.06250064353185L352.34375,475.69027819233986L355.859375,484.7550017452628L359.375,494.8017805241458L362.890625,505.32397369644417L366.40625,515.7916025972667L369.921875,525.6808598507371L373.4375,534.5029799747739L376.953125,541.8307921497315L380.46875,547.321432524197L383.984375,550.733940111732L387.5,551.9407809750107L391.015625,550.932719603931L394.53125,547.8168607168033L398.046875,542.808094118968L401.5625,536.2145647043923L405.078125,528.4181356895145L408.59375,519.8510952109132L412.109375,510.97055819818695L415.625,502.2321258181337L419.140625,494.0643784330595L422.65625,486.8456956241622L426.171875,480.884725014124L429.6875,476.4055724146035L433.203125,473.5384758511407L436.71875,472.316375399835L440.234375,472.6774218169468L443.75,474.47310273425205L447.265625,477.48132813276027L450.78125,481.42352723932424L454.296875,485.9845839672091L457.8125,490.83429029629093L461.328125,495.6489342926347L464.84375,500.1316641123412L468.359375,504.0303781596255L471.875,507.15207622970127L475.390625,509.3728540437973L478.90625,510.6430174653305L482.421875,510.98711366848573L485.9375,510.4990040567846L489.453125,509.3324171951643L492.96875,507.687700056121L496.484375,505.79571554037767L500.0,503.9L503.515625,502.2383870653231L507.03125,501.0253188733941L510.546875,500.4360031527692L514.0625,500.59343968958575L517.578125,501.5591420458628L521.09375,503.32813332762385L524.609375,505.8285144654234L528.125,508.9256078356419L531.640625,512.4303867441974L535.15625,516.1116304460004L538.671875,519.7110115106968L542.1875,522.9601414028051L545.703125,525.598481653734L549.21875,527.390978505257L552.734375,528.1443006168381L556.25,527.7206501855812L559.765625,526.048271280982L563.28125,523.1279852767711L566.796875,519.0353288474391L570.3125,513.9181397586922L573.828125,507.9897130438801L577.34375,501.5179183177158L580.859375,494.81091191161664L584.375,488.20028092551576L587.890625,482.02260843279896L591.40625,476.6005414076185L594.921875,472.22447058541775L598.4375,469.1358934229564L601.953125,467.5134304797243L605.46875,467.4623084331022L608.984375,469.0079193064504L612.5,472.0938276608507L616.015625,476.58433963480013L619.53125,482.27148494905316L623.046875,488.8860105544404L626.5625,496.111756931406L630.078125,503.60259799279896L633.59375,511.0009836283996L637.109375,517.9570378197666L640.625,524.147139342066L644.140625,529.2909472861071L647.65625,533.1659274430384L651.171875,535.6185821852355L654.6875,536.5717771343659L658.203125,536.0277815360716L661.71875,534.066883032294L665.234375,530.8416876088097L668.75,526.5674578440609L672.265625,521.5090636942859L675.78125,515.9653077043597L679.296875,510.25153046086683L682.8125,504.6814945157897L686.328125,499.5495810050151L689.84375,495.1143109956675L693.359375,491.5841246545947L696.875,489.1062201789406L700.390625,487.7590784560342L703.90625,487.5490884464517L707.421875,488.4114540322863L710.9375,490.2153185278764L714.453125,492.7728017635774L717.96875,495.8514200143735L721.484375,499.1891635647999L725.0,502.51135133915824L728.515625,505.5482755975542L732.03125,508.05259839542293L735.546875,509.815468547812L739.0625,510.6803932876757L742.578125,510.55401952715397L746.09375,509.4131494388079L749.609375,507.30752503753575L753.125,504.35815533168L756.640625,500.7512144697672L760.15625,496.72779613719257L763.671875,492.5700539500229L767.1875,488.5844759107418L770.703125,485.0832205157154L774.21875,482.3645721479718L777.734375,480.69364580853016L781.25,480.28448092926396L784.765625,481.2846092399641L788.28125,483.76306424023426L791.796875,487.7026250743713L795.3125,492.9968641411961L798.828125,499.45230710026516L802.34375,506.7957298918345L805.859375,514.6863254096008L809.375,522.7321887805031L812.890625,530.5103109468519L816.40625,537.5890505472546L819.921875,543.5518872210803L823.4375,548.0211560274638L826.953125,550.6804299684648L830.46875,551.2942591232952L833.984375,549.7240900246138L837.5,545.9393728623252L841.015625,540.0231081119591L844.53125,532.1713758827258L848.046875,522.6867153106109L851.5625,511.96556014734404L855.078125,500.48027154270034L858.59375,488.7566209151758L862.109375,477.3478466667402L865.625,466.8066221700427L869.140625,457.6564156957385L872.65625,450.3637862382775L876.171875,445.31313738381573L879.6875,442.7853440361646L883.203125,442.9414784410043L886.71875,445.8126017063156L890.234375,451.2962683710168L893.75,459.1600315750302L897.265625,469.05185475361804L900.78125,480.5169538159071L904.296875,493.02023314239335L907.8125,505.9731602390151L911.328125,518.7636662026155L914.84375,530.7874777454973L918.359375,541.479192679521L921.875,550.3414108585795L925.390625,556.9703276653314L928.90625,561.0763827685444L932.421875,562.4988233442381L935.9375,561.2133737307896L939.453125,557.3325840633536L942.96875,551.098837340151L946.484375,542.8704044219123L950.0,533.1013260887721L953.515625,522.3249824687091L957.03125,511.11708420436435L960.546875,500.05197352400177L964.0625,489.67919479960426L967.578125,480.49493709685544L971.09375,472.91702219792626L974.609375,467.2647251778941L978.125,463.74442210652273L981.640625,462.44171840816284L985.15625,463.32034181351344L988.671875,466.22770674808123L992.1875,470.9066933903823L995.703125,477.01285419942826L999.21875,484.1359808332569L1002.734375,491.82474921504615L1006.25,499.6130202957317L1009.765625,507.046314691584L1013.28125,513.7070021567781L1016.796875,519.2368485924617L1020.3125,523.3557365983309L1023.828125,525.8756093604292L1027.34375,526.7089678818045L1030.859375,525.8715620076828L1034.375,523.4792389762027L1037.890625,519.7392317018796L1041.40625,514.9364657402799L1044.921875,509.41572354109337L1048.4375,503.56071417400904L1051.953125,497.77124617457446L1055.46875,492.4397838802157L1058.984375,487.92868064247705L1062.5,484.54932635407135L1066.015625,482.54432613391475L1069.53125,482.0736493392435L1073.046875,483.2054636710043L1076.5625,485.9121105377242L1080.078125,490.0713990644665L1083.59375,495.47311194187495L1087.109375,501.83034145322046L1090.625,508.7950224860413L1094.140625,515.9768136821126L1097.65625,522.9643086252788L1101.171875,529.3474441184751L1104.6875,534.7399173065476L1108.203125,538.8004297469174L1111.71875,541.2516434919926L1115.234375,541.8958577921389L1118.75,540.6265883556787L1122.265625,537.4354450161919L1125.78125,532.4139470435142L1129.296875,525.7501757256629L1132.8125,517.7204280441026L1136.328125,508.67628998017796L1139.84375,499.02778050552547L1143.359375,489.22341608207927L1146.875,479.7282007206643L1150.390625,471.0006507188233L1153.90625,463.4700110844558L1157.421875,457.51481012598526L1160.9375,453.4438304382285L1164.453125,451.4804520977149L1167.96875,451.75115356318884L1171.484375,454.2787462086734L1175.0,458.98068021389054L1178.515625,465.6725047539161L1182.03125,474.07630695790886L1185.546875,483.83370502796504L1189.0625,494.5227438368384L1192.578125,505.6778477597874L1196.09375,516.8118352422454L1199.609375,527.4389002527075L1203.125,537.0974223015928L1206.640625,545.3714812275143L1210.15625,551.9100245707762L1213.671875,556.4427602163197L1217.1875,558.7920184704561L1220.703125,558.8800367820106L1224.21875,556.7313559139518L1227.734375,552.4702661215242L1231.25,546.3134926814956L1234.765625,538.5585488089209L1238.28125,529.568398144793L1241.796875,519.7532475127273L1245.3125,509.5504244004133L1248.828125,499.40337595510834L1252.34375,489.74085334424785L1255.859375,480.95731629850366L1259.375,473.39550976096996L1262.890625,467.33203297101306L1266.40625,462.9665487937574L1269.921875,460.41507761505784L1273.4375,459.707597201696L1276.953125,460.789940053543L1280.46875,463.52975564065537L1283.984375,467.7260987069476L1287.5,473.1220275162357L1291.015625,479.41945668216044L1294.53125,486.2954149044001L1298.046875,493.4188126865541L1301.5625,500.46683020463155L1305.078125,507.1400892816895L1308.59375,513.1758714874192L1312.109375,518.3587798476018L1315.625,522.5284056419771L1319.140625,525.5837439836397L1322.65625,527.4842912196019L1326.171875,528.2479424849199L1329.6875,527.9459783788172L1333.203125,526.6955763207689L1336.71875,524.6503970532851L1340.234375,521.9898745283342L1343.75,518.9078750392075L1347.265625,515.6013884963128L1350.78125,512.2598732617769L1354.296875,509.05580031946386L1357.8125,506.13683907174266L1361.328125,503.6200034993981L1364.84375,501.58794248831634L1368.359375,500.08742082286716L1371.875,499.1299063908332L1375.390625,498.6940624059956L1378.90625,498.7298474587093L1382.421875,499.16385575553494L1385.9375,499.9054878357605L1389.453125,500.8535291053229L1392.96875,501.9027284211997L1396.484375,502.95000855602166L1400.0,503.9L1403.515625,504.6696634162661L1407.03125,505.19184771191755L1410.546875,505.4177135415166L1414.0625,505.3180299125903L1417.578125,504.8834190313572L1421.09375,504.1236774361818L1424.609375,503.0663371217882L1428.125,501.75464769437593L1431.640625,500.2451601957757L1435.15625,498.60507719791747L1438.671875,496.9095054852098L1442.1875,495.23871144114804L1445.703125,493.6754399913152L1449.21875,492.3023205536891L1452.734375,491.19935244944014L1456.25,490.44144136823974L1459.765625,490.09595034099397L1463.28125,490.2202344236824L1466.796875,490.85914757817613L1470.3125,492.04254115990506L1473.828125,493.7828127098016L1477.34375,496.07260699888513L1480.859375,498.8828133397114L1484.375,502.16103861487267L1487.890625,505.830759032867L1491.40625,509.7913607575209L1494.921875,513.9192668791125L1498.4375,518.0703138571419L1501.953125,522.0834845371771L1505.46875,525.7860290513371L1508.984375,528.9999132125673L1512.5,531.5494320223975L1516.015625,533.2697206716377L1519.53125,534.0157949256629L1523.046875,533.6716654449184L1526.5625,532.1590045499438L1530.078125,529.4448064570308L1533.59375,525.5474788262998L1537.109375,520.5408382561608L1540.625,514.5555563191404L1544.140625,507.7777143089553L1547.65625,500.4442696810148L1551.171875,492.8354081480088L1554.6875,485.26394310544015L1558.203125,478.0621172310125L1561.71875,471.566347283147L1565.234375,466.1006195061433L1568.75,461.95937731880315L1572.265625,459.3908341789355L1575.78125,458.5816839345922L1579.296875,459.64416276147404L1582.8125,462.6063385711867L1586.328125,467.4063669810405L1589.84375,473.8912628812468L1593.359375,481.8205023705791L1596.875,490.8745037209871L1600.390625,500.66775309401254L1603.90625,510.7660577779118L1607.421875,520.7071443304432L1610.9375,530.0235884525091L1614.453125,538.2668834756284L1617.96875,545.0313382789251L1621.484375,549.9764530313205L1625.0,552.8464579133042L1628.515625,553.4858166934571L1632.03125,551.8496895361387L1635.546875,548.0086086475903L1639.0625,542.1469328200363L1642.578125,534.5549953522204L1646.09375,525.6152241793669L1649.609375,515.7828717054476L1653.125,505.5623228767575L1656.640625,495.48023262509207L1660.15625,486.05695950646225L1663.671875,477.7778963544089L1667.1875,471.0663408794064L1670.703125,466.25949458457774L1674.21875,463.5890281481278L1677.734375,463.1674124372281L1681.25,464.9808990391142L1684.765625,468.8896600220079L1688.28125,474.6351849225033L1691.796875,481.85460776100047L1695.3125,490.1012235569332L1698.828125,498.87007743867895L1702.34375,507.62719330299353L1705.859375,515.8407730945878L1709.375,523.0125576208877L1712.890625,528.7075052974124L1716.40625,532.5800199877272L1719.921875,534.3951402427288L1723.4375,534.0433803615668L1726.953125,531.5482734045154L1730.46875,527.0660870729866L1733.984375,520.8776407815194L1737.5,513.3726193337837L1741.015625,505.02722754859883L1744.53125,496.3764339293292L1748.046875,487.9823854427332L1751.5625,480.4008190409246L1755.078125,474.14743333260446L1758.59375,469.66620661046886L1762.109375,467.3015529085319L1765.625,467.27600053863614L1769.140625,469.67476905296235L1772.65625,474.4382283365128L1776.171875,481.3627701916905L1779.6875,490.1101347473777L1783.203125,500.22473992153317L1786.71875,511.15809110176184L1790.234375,522.2989280540332L1793.75,533.007421788001L1797.265625,542.6514862554399L1800.78125,550.6431332555437L1804.296875,556.4727821536185L1807.8125,559.7395403375217L1811.328125,560.1756899691479L1814.84375,557.6639389897805L1818.359375,552.246400931595L1821.875,544.124735370408L1825.390625,533.6513817925261L1828.90625,521.3123252744278L1832.421875,507.7023134968221L1835.9375,493.49387353255327L1839.453125,479.4018289660256L1842.96875,466.14527315749774L1846.484375,454.40909847764544" fill="none" stroke="rgb(255,165,0)" stroke-width="1"/>
     </g>
     <g transform="translate(0.0,0.0)">
          <text pointer-events="none" x="3" y="-3" transform="translate(50,170)" fill="rgb(255,165,0)">INV_FFT</text>
     </g>
</svg>